<?xml version="1.0" encoding="UTF-8" standalone="no"?>
<!DOCTYPE svg PUBLIC "-//W3C//DTD SVG 1.1//EN"
 "http://www.w3.org/Graphics/SVG/1.1/DTD/svg11.dtd">
<!-- Generated by graphviz version 2.47.0 (20210316.0004)
 -->
<!-- Title: dependencies Pages: 1 -->
<svg width="1218pt" height="284pt"
 viewBox="0.00 0.00 1218.00 284.00" xmlns="http://www.w3.org/2000/svg" xmlns:xlink="http://www.w3.org/1999/xlink">
<g id="graph0" class="graph" transform="scale(1 1) rotate(0) translate(4 280)">
<title>dependencies</title>
<polygon fill="white" stroke="transparent" points="-4,4 -4,-280 1214,-280 1214,4 -4,4"/>
<text text-anchor="start" x="584.01" y="-42.4" font-family="Times-12" font-weight="bold" font-size="14.00">Legend</text>
<polygon fill="#ffffb3" stroke="transparent" points="371,-10 371,-30 391,-30 391,-10 371,-10"/>
<text text-anchor="start" x="394.63" y="-15.4" font-family="Times-12" font-size="14.00"> &#160;Declarations</text>
<polygon fill="#8dd3c7" stroke="transparent" points="484,-10 484,-30 504,-30 504,-10 484,-10"/>
<text text-anchor="start" x="507.73" y="-15.4" font-family="Times-12" font-size="14.00"> &#160;Module</text>
<polygon fill="#80b1d3" stroke="transparent" points="570,-10 570,-30 590,-30 590,-10 570,-10"/>
<text text-anchor="start" x="593.78" y="-15.4" font-family="Times-12" font-size="14.00"> &#160;Bootstrap</text>
<polygon fill="#fdb462" stroke="transparent" points="667,-10 667,-30 687,-30 687,-10 667,-10"/>
<text text-anchor="start" x="690.67" y="-15.4" font-family="Times-12" font-size="14.00"> &#160;Providers</text>
<polygon fill="#fb8072" stroke="transparent" points="763,-10 763,-30 783,-30 783,-10 763,-10"/>
<text text-anchor="start" x="786.73" y="-15.4" font-family="Times-12" font-size="14.00"> &#160;Exports</text>
<g id="clust1" class="cluster">
<title>cluster_SharedModule</title>
<polygon fill="none" stroke="black" stroke-dasharray="1,5" points="8,-70 8,-268 1202,-268 1202,-70 8,-70"/>
</g>
<g id="clust8" class="cluster">
<title>cluster_SharedModule_imports</title>
<polygon fill="none" stroke="black" points="870,-78 870,-130 1194,-130 1194,-78 870,-78"/>
</g>
<g id="clust2" class="cluster">
<title>cluster_SharedModule_declarations</title>
<polygon fill="none" stroke="black" points="16,-78 16,-130 862,-130 862,-78 16,-78"/>
</g>
<g id="clust9" class="cluster">
<title>cluster_SharedModule_exports</title>
<polygon fill="none" stroke="black" points="294,-208 294,-260 960,-260 960,-208 294,-208"/>
</g>
<!-- CheckoutComponent -->
<g id="node1" class="node">
<title>CheckoutComponent</title>
<polygon fill="#ffffb3" stroke="black" points="854.49,-122 719.51,-122 719.51,-86 854.49,-86 854.49,-122"/>
<text text-anchor="middle" x="787" y="-99.8" font-family="Times,serif" font-size="14.00">CheckoutComponent</text>
</g>
<!-- SharedModule -->
<g id="node6" class="node">
<title>SharedModule</title>
<polygon fill="#8dd3c7" stroke="black" points="658.42,-187 655.42,-191 634.42,-191 631.42,-187 559.58,-187 559.58,-151 658.42,-151 658.42,-187"/>
<text text-anchor="middle" x="609" y="-164.8" font-family="Times,serif" font-size="14.00">SharedModule</text>
</g>
<!-- CheckoutComponent&#45;&gt;SharedModule -->
<g id="edge1" class="edge">
<title>CheckoutComponent&#45;&gt;SharedModule</title>
<path fill="none" stroke="black" d="M757.51,-122.01C757.51,-138.05 757.51,-159 757.51,-159 757.51,-159 668.45,-159 668.45,-159"/>
<polygon fill="black" stroke="black" points="668.45,-155.5 658.45,-159 668.45,-162.5 668.45,-155.5"/>
</g>
<!-- PlatformLanguageComponent -->
<g id="node2" class="node">
<title>PlatformLanguageComponent</title>
<polygon fill="#ffffb3" stroke="black" points="701.52,-122 516.48,-122 516.48,-86 701.52,-86 701.52,-122"/>
<text text-anchor="middle" x="609" y="-99.8" font-family="Times,serif" font-size="14.00">PlatformLanguageComponent</text>
</g>
<!-- PlatformLanguageComponent&#45;&gt;SharedModule -->
<g id="edge2" class="edge">
<title>PlatformLanguageComponent&#45;&gt;SharedModule</title>
<path fill="none" stroke="black" d="M609,-122.11C609,-122.11 609,-140.99 609,-140.99"/>
<polygon fill="black" stroke="black" points="605.5,-140.99 609,-150.99 612.5,-140.99 605.5,-140.99"/>
</g>
<!-- PopupinfoComponent -->
<g id="node3" class="node">
<title>PopupinfoComponent</title>
<polygon fill="#ffffb3" stroke="black" points="497.67,-122 358.33,-122 358.33,-86 497.67,-86 497.67,-122"/>
<text text-anchor="middle" x="428" y="-99.8" font-family="Times,serif" font-size="14.00">PopupinfoComponent</text>
</g>
<!-- PopupinfoComponent&#45;&gt;SharedModule -->
<g id="edge3" class="edge">
<title>PopupinfoComponent&#45;&gt;SharedModule</title>
<path fill="none" stroke="black" d="M471.62,-122.01C471.62,-138.05 471.62,-159 471.62,-159 471.62,-159 549.4,-159 549.4,-159"/>
<polygon fill="black" stroke="black" points="549.4,-162.5 559.4,-159 549.4,-155.5 549.4,-162.5"/>
</g>
<!-- PricingComponent -->
<g id="node4" class="node">
<title>PricingComponent</title>
<polygon fill="#ffffb3" stroke="black" points="339.77,-122 218.23,-122 218.23,-86 339.77,-86 339.77,-122"/>
<text text-anchor="middle" x="279" y="-99.8" font-family="Times,serif" font-size="14.00">PricingComponent</text>
</g>
<!-- PricingComponent&#45;&gt;SharedModule -->
<g id="edge4" class="edge">
<title>PricingComponent&#45;&gt;SharedModule</title>
<path fill="none" stroke="black" d="M321.12,-122.27C321.12,-140.56 321.12,-166 321.12,-166 321.12,-166 549.51,-166 549.51,-166"/>
<polygon fill="black" stroke="black" points="549.51,-169.5 559.51,-166 549.51,-162.5 549.51,-169.5"/>
</g>
<!-- RedsysResponseComponent -->
<g id="node5" class="node">
<title>RedsysResponseComponent</title>
<polygon fill="#ffffb3" stroke="black" points="199.93,-122 24.07,-122 24.07,-86 199.93,-86 199.93,-122"/>
<text text-anchor="middle" x="112" y="-99.8" font-family="Times,serif" font-size="14.00">RedsysResponseComponent</text>
</g>
<!-- RedsysResponseComponent&#45;&gt;SharedModule -->
<g id="edge5" class="edge">
<title>RedsysResponseComponent&#45;&gt;SharedModule</title>
<path fill="none" stroke="black" d="M112,-122.13C112,-142.57 112,-173 112,-173 112,-173 549.53,-173 549.53,-173"/>
<polygon fill="black" stroke="black" points="549.53,-176.5 559.53,-173 549.53,-169.5 549.53,-176.5"/>
</g>
<!-- CheckoutComponent  -->
<g id="node9" class="node">
<title>CheckoutComponent </title>
<polygon fill="#fb8072" stroke="black" points="952.49,-252 813.51,-252 813.51,-216 952.49,-216 952.49,-252"/>
<text text-anchor="middle" x="883" y="-229.8" font-family="Times,serif" font-size="14.00">CheckoutComponent </text>
</g>
<!-- SharedModule&#45;&gt;CheckoutComponent  -->
<g id="edge8" class="edge">
<title>SharedModule&#45;&gt;CheckoutComponent </title>
<path fill="none" stroke="black" stroke-dasharray="5,2" d="M658.4,-180C724.67,-180 834.12,-180 834.12,-180 834.12,-180 834.12,-205.72 834.12,-205.72"/>
<polygon fill="black" stroke="black" points="830.63,-205.72 834.12,-215.72 837.63,-205.72 830.63,-205.72"/>
</g>
<!-- PlatformLanguageComponent  -->
<g id="node10" class="node">
<title>PlatformLanguageComponent </title>
<polygon fill="#fb8072" stroke="black" points="795.52,-252 606.48,-252 606.48,-216 795.52,-216 795.52,-252"/>
<text text-anchor="middle" x="701" y="-229.8" font-family="Times,serif" font-size="14.00">PlatformLanguageComponent </text>
</g>
<!-- SharedModule&#45;&gt;PlatformLanguageComponent  -->
<g id="edge9" class="edge">
<title>SharedModule&#45;&gt;PlatformLanguageComponent </title>
<path fill="none" stroke="black" stroke-dasharray="5,2" d="M632.35,-187.11C632.35,-187.11 632.35,-205.99 632.35,-205.99"/>
<polygon fill="black" stroke="black" points="628.85,-205.99 632.35,-215.99 635.85,-205.99 628.85,-205.99"/>
</g>
<!-- PopupinfoComponent  -->
<g id="node11" class="node">
<title>PopupinfoComponent </title>
<polygon fill="#fb8072" stroke="black" points="588.67,-252 445.33,-252 445.33,-216 588.67,-216 588.67,-252"/>
<text text-anchor="middle" x="517" y="-229.8" font-family="Times,serif" font-size="14.00">PopupinfoComponent </text>
</g>
<!-- SharedModule&#45;&gt;PopupinfoComponent  -->
<g id="edge10" class="edge">
<title>SharedModule&#45;&gt;PopupinfoComponent </title>
<path fill="none" stroke="black" stroke-dasharray="5,2" d="M574.19,-187.11C574.19,-187.11 574.19,-205.99 574.19,-205.99"/>
<polygon fill="black" stroke="black" points="570.69,-205.99 574.19,-215.99 577.69,-205.99 570.69,-205.99"/>
</g>
<!-- PricingComponent  -->
<g id="node12" class="node">
<title>PricingComponent </title>
<polygon fill="#fb8072" stroke="black" points="427.77,-252 302.23,-252 302.23,-216 427.77,-216 427.77,-252"/>
<text text-anchor="middle" x="365" y="-229.8" font-family="Times,serif" font-size="14.00">PricingComponent </text>
</g>
<!-- SharedModule&#45;&gt;PricingComponent  -->
<g id="edge11" class="edge">
<title>SharedModule&#45;&gt;PricingComponent </title>
<path fill="none" stroke="black" stroke-dasharray="5,2" d="M559.69,-180C495.91,-180 392.9,-180 392.9,-180 392.9,-180 392.9,-205.72 392.9,-205.72"/>
<polygon fill="black" stroke="black" points="389.4,-205.72 392.9,-215.72 396.4,-205.72 389.4,-205.72"/>
</g>
<!-- LoggedRoutingModule -->
<g id="node7" class="node">
<title>LoggedRoutingModule</title>
<polygon fill="#8dd3c7" stroke="black" points="1185.94,-122 1182.94,-126 1161.94,-126 1158.94,-122 1038.06,-122 1038.06,-86 1185.94,-86 1185.94,-122"/>
<text text-anchor="middle" x="1112" y="-99.8" font-family="Times,serif" font-size="14.00">LoggedRoutingModule</text>
</g>
<!-- LoggedRoutingModule&#45;&gt;SharedModule -->
<g id="edge6" class="edge">
<title>LoggedRoutingModule&#45;&gt;SharedModule</title>
<path fill="none" stroke="black" d="M1112,-122.13C1112,-142.57 1112,-173 1112,-173 1112,-173 668.61,-173 668.61,-173"/>
<polygon fill="black" stroke="black" points="668.61,-169.5 658.61,-173 668.61,-176.5 668.61,-169.5"/>
</g>
<!-- TranslocoRootModule -->
<g id="node8" class="node">
<title>TranslocoRootModule</title>
<polygon fill="#8dd3c7" stroke="black" points="1020.25,-122 1017.25,-126 996.25,-126 993.25,-122 877.75,-122 877.75,-86 1020.25,-86 1020.25,-122"/>
<text text-anchor="middle" x="949" y="-99.8" font-family="Times,serif" font-size="14.00">TranslocoRootModule</text>
</g>
<!-- TranslocoRootModule&#45;&gt;SharedModule -->
<g id="edge7" class="edge">
<title>TranslocoRootModule&#45;&gt;SharedModule</title>
<path fill="none" stroke="black" d="M914.93,-122.27C914.93,-140.56 914.93,-166 914.93,-166 914.93,-166 668.49,-166 668.49,-166"/>
<polygon fill="black" stroke="black" points="668.49,-162.5 658.49,-166 668.49,-169.5 668.49,-162.5"/>
</g>
</g>
</svg>
