<?xml version="1.0" encoding="UTF-8" standalone="no"?>
<!DOCTYPE svg PUBLIC "-//W3C//DTD SVG 1.1//EN"
 "http://www.w3.org/Graphics/SVG/1.1/DTD/svg11.dtd">
<!-- Generated by graphviz version 2.47.0 (20210316.0004)
 -->
<!-- Title: dependencies Pages: 1 -->
<svg width="504pt" height="284pt"
 viewBox="0.00 0.00 504.00 284.00" xmlns="http://www.w3.org/2000/svg" xmlns:xlink="http://www.w3.org/1999/xlink">
<g id="graph0" class="graph" transform="scale(1 1) rotate(0) translate(4 280)">
<title>dependencies</title>
<polygon fill="white" stroke="transparent" points="-4,4 -4,-280 500,-280 500,4 -4,4"/>
<text text-anchor="start" x="227.01" y="-42.4" font-family="Times-12" font-weight="bold" font-size="14.00">Legend</text>
<polygon fill="#ffffb3" stroke="transparent" points="14,-10 14,-30 34,-30 34,-10 14,-10"/>
<text text-anchor="start" x="37.63" y="-15.4" font-family="Times-12" font-size="14.00"> &#160;Declarations</text>
<polygon fill="#8dd3c7" stroke="transparent" points="127,-10 127,-30 147,-30 147,-10 127,-10"/>
<text text-anchor="start" x="150.73" y="-15.4" font-family="Times-12" font-size="14.00"> &#160;Module</text>
<polygon fill="#80b1d3" stroke="transparent" points="213,-10 213,-30 233,-30 233,-10 213,-10"/>
<text text-anchor="start" x="236.78" y="-15.4" font-family="Times-12" font-size="14.00"> &#160;Bootstrap</text>
<polygon fill="#fdb462" stroke="transparent" points="310,-10 310,-30 330,-30 330,-10 310,-10"/>
<text text-anchor="start" x="333.67" y="-15.4" font-family="Times-12" font-size="14.00"> &#160;Providers</text>
<polygon fill="#fb8072" stroke="transparent" points="406,-10 406,-30 426,-30 426,-10 406,-10"/>
<text text-anchor="start" x="429.73" y="-15.4" font-family="Times-12" font-size="14.00"> &#160;Exports</text>
<g id="clust1" class="cluster">
<title>cluster_PipesModule</title>
<polygon fill="none" stroke="black" stroke-dasharray="1,5" points="87,-70 87,-268 409,-268 409,-70 87,-70"/>
</g>
<g id="clust6" class="cluster">
<title>cluster_PipesModule_exports</title>
<polygon fill="none" stroke="black" points="95,-208 95,-260 401,-260 401,-208 95,-208"/>
</g>
<g id="clust2" class="cluster">
<title>cluster_PipesModule_declarations</title>
<polygon fill="none" stroke="black" points="99,-78 99,-130 398,-130 398,-78 99,-78"/>
</g>
<!-- AllergenMessagePipe -->
<g id="node1" class="node">
<title>AllergenMessagePipe</title>
<polygon fill="#ffffb3" stroke="black" points="390.34,-122 251.66,-122 251.66,-86 390.34,-86 390.34,-122"/>
<text text-anchor="middle" x="321" y="-99.8" font-family="Times,serif" font-size="14.00">AllergenMessagePipe</text>
</g>
<!-- PipesModule -->
<g id="node3" class="node">
<title>PipesModule</title>
<polygon fill="#8dd3c7" stroke="black" points="215.88,-187 212.88,-191 191.88,-191 188.88,-187 126.12,-187 126.12,-151 215.88,-151 215.88,-187"/>
<text text-anchor="middle" x="171" y="-164.8" font-family="Times,serif" font-size="14.00">PipesModule</text>
</g>
<!-- AllergenMessagePipe&#45;&gt;PipesModule -->
<g id="edge1" class="edge">
<title>AllergenMessagePipe&#45;&gt;PipesModule</title>
<path fill="none" stroke="black" d="M344.14,-122.02C344.14,-139.37 344.14,-163 344.14,-163 344.14,-163 226.04,-163 226.04,-163"/>
<polygon fill="black" stroke="black" points="226.04,-159.5 216.04,-163 226.04,-166.5 226.04,-159.5"/>
</g>
<!-- TitleCaseWordPipe -->
<g id="node2" class="node">
<title>TitleCaseWordPipe</title>
<polygon fill="#ffffb3" stroke="black" points="233.41,-122 106.59,-122 106.59,-86 233.41,-86 233.41,-122"/>
<text text-anchor="middle" x="170" y="-99.8" font-family="Times,serif" font-size="14.00">TitleCaseWordPipe</text>
</g>
<!-- TitleCaseWordPipe&#45;&gt;PipesModule -->
<g id="edge2" class="edge">
<title>TitleCaseWordPipe&#45;&gt;PipesModule</title>
<path fill="none" stroke="black" d="M171,-122.11C171,-122.11 171,-140.99 171,-140.99"/>
<polygon fill="black" stroke="black" points="167.5,-140.99 171,-150.99 174.5,-140.99 167.5,-140.99"/>
</g>
<!-- AllergenMessagePipe  -->
<g id="node4" class="node">
<title>AllergenMessagePipe </title>
<polygon fill="#fb8072" stroke="black" points="393.34,-252 250.66,-252 250.66,-216 393.34,-216 393.34,-252"/>
<text text-anchor="middle" x="322" y="-229.8" font-family="Times,serif" font-size="14.00">AllergenMessagePipe </text>
</g>
<!-- PipesModule&#45;&gt;AllergenMessagePipe  -->
<g id="edge3" class="edge">
<title>PipesModule&#45;&gt;AllergenMessagePipe </title>
<path fill="none" stroke="black" stroke-dasharray="5,2" d="M216.08,-175C252.55,-175 297.86,-175 297.86,-175 297.86,-175 297.86,-205.98 297.86,-205.98"/>
<polygon fill="black" stroke="black" points="294.36,-205.98 297.86,-215.98 301.36,-205.98 294.36,-205.98"/>
</g>
<!-- TitleCaseWordPipe  -->
<g id="node5" class="node">
<title>TitleCaseWordPipe </title>
<polygon fill="#fb8072" stroke="black" points="232.91,-252 103.09,-252 103.09,-216 232.91,-216 232.91,-252"/>
<text text-anchor="middle" x="168" y="-229.8" font-family="Times,serif" font-size="14.00">TitleCaseWordPipe </text>
</g>
<!-- PipesModule&#45;&gt;TitleCaseWordPipe  -->
<g id="edge4" class="edge">
<title>PipesModule&#45;&gt;TitleCaseWordPipe </title>
<path fill="none" stroke="black" stroke-dasharray="5,2" d="M171,-187.11C171,-187.11 171,-205.99 171,-205.99"/>
<polygon fill="black" stroke="black" points="167.5,-205.99 171,-215.99 174.5,-205.99 167.5,-205.99"/>
</g>
</g>
</svg>
