<?xml version="1.0" encoding="UTF-8" standalone="no"?>
<!DOCTYPE svg PUBLIC "-//W3C//DTD SVG 1.1//EN"
 "http://www.w3.org/Graphics/SVG/1.1/DTD/svg11.dtd">
<!-- Generated by graphviz version 2.47.0 (20210316.0004)
 -->
<!-- Title: dependencies Pages: 1 -->
<svg width="2559pt" height="284pt"
 viewBox="0.00 0.00 2559.00 284.00" xmlns="http://www.w3.org/2000/svg" xmlns:xlink="http://www.w3.org/1999/xlink">
<g id="graph0" class="graph" transform="scale(1 1) rotate(0) translate(4 280)">
<title>dependencies</title>
<polygon fill="white" stroke="transparent" points="-4,4 -4,-280 2555,-280 2555,4 -4,4"/>
<text text-anchor="start" x="1254.51" y="-42.4" font-family="Times-12" font-weight="bold" font-size="14.00">Legend</text>
<polygon fill="#ffffb3" stroke="transparent" points="1041.5,-10 1041.5,-30 1061.5,-30 1061.5,-10 1041.5,-10"/>
<text text-anchor="start" x="1065.13" y="-15.4" font-family="Times-12" font-size="14.00"> &#160;Declarations</text>
<polygon fill="#8dd3c7" stroke="transparent" points="1154.5,-10 1154.5,-30 1174.5,-30 1174.5,-10 1154.5,-10"/>
<text text-anchor="start" x="1178.23" y="-15.4" font-family="Times-12" font-size="14.00"> &#160;Module</text>
<polygon fill="#80b1d3" stroke="transparent" points="1240.5,-10 1240.5,-30 1260.5,-30 1260.5,-10 1240.5,-10"/>
<text text-anchor="start" x="1264.28" y="-15.4" font-family="Times-12" font-size="14.00"> &#160;Bootstrap</text>
<polygon fill="#fdb462" stroke="transparent" points="1337.5,-10 1337.5,-30 1357.5,-30 1357.5,-10 1337.5,-10"/>
<text text-anchor="start" x="1361.17" y="-15.4" font-family="Times-12" font-size="14.00"> &#160;Providers</text>
<polygon fill="#fb8072" stroke="transparent" points="1433.5,-10 1433.5,-30 1453.5,-30 1453.5,-10 1433.5,-10"/>
<text text-anchor="start" x="1457.23" y="-15.4" font-family="Times-12" font-size="14.00"> &#160;Exports</text>
<g id="clust1" class="cluster">
<title>cluster_AppModule</title>
<polygon fill="none" stroke="black" stroke-dasharray="1,5" points="8,-70 8,-268 2543,-268 2543,-70 8,-70"/>
</g>
<g id="clust17" class="cluster">
<title>cluster_AppModule_bootstrap</title>
<polygon fill="none" stroke="black" points="1249,-208 1249,-260 1373,-260 1373,-208 1249,-208"/>
</g>
<g id="clust15" class="cluster">
<title>cluster_AppModule_imports</title>
<polygon fill="none" stroke="black" points="1993,-78 1993,-130 2535,-130 2535,-78 1993,-78"/>
</g>
<g id="clust2" class="cluster">
<title>cluster_AppModule_declarations</title>
<polygon fill="none" stroke="black" points="16,-78 16,-130 1985,-130 1985,-78 16,-78"/>
</g>
<!-- AppComponent -->
<g id="node1" class="node">
<title>AppComponent</title>
<polygon fill="#ffffb3" stroke="black" points="1976.94,-122 1871.06,-122 1871.06,-86 1976.94,-86 1976.94,-122"/>
<text text-anchor="middle" x="1924" y="-99.8" font-family="Times,serif" font-size="14.00">AppComponent</text>
</g>
<!-- AppModule -->
<g id="node13" class="node">
<title>AppModule</title>
<polygon fill="#8dd3c7" stroke="black" points="1352.66,-187 1349.66,-191 1328.66,-191 1325.66,-187 1269.34,-187 1269.34,-151 1352.66,-151 1352.66,-187"/>
<text text-anchor="middle" x="1311" y="-164.8" font-family="Times,serif" font-size="14.00">AppModule</text>
</g>
<!-- AppComponent&#45;&gt;AppModule -->
<g id="edge1" class="edge">
<title>AppComponent&#45;&gt;AppModule</title>
<path fill="none" stroke="black" d="M1924,-122.3C1924,-140.27 1924,-165 1924,-165 1924,-165 1363.13,-165 1363.13,-165"/>
<polygon fill="black" stroke="black" points="1363.13,-161.5 1353.13,-165 1363.13,-168.5 1363.13,-161.5"/>
</g>
<!-- ClientCardMenuComponent -->
<g id="node2" class="node">
<title>ClientCardMenuComponent</title>
<polygon fill="#ffffb3" stroke="black" points="1853.93,-122 1678.07,-122 1678.07,-86 1853.93,-86 1853.93,-122"/>
<text text-anchor="middle" x="1766" y="-99.8" font-family="Times,serif" font-size="14.00">ClientCardMenuComponent</text>
</g>
<!-- ClientCardMenuComponent&#45;&gt;AppModule -->
<g id="edge2" class="edge">
<title>ClientCardMenuComponent&#45;&gt;AppModule</title>
<path fill="none" stroke="black" d="M1766,-122.03C1766,-138.4 1766,-160 1766,-160 1766,-160 1362.99,-160 1362.99,-160"/>
<polygon fill="black" stroke="black" points="1362.99,-156.5 1352.99,-160 1362.99,-163.5 1362.99,-156.5"/>
</g>
<!-- ClientMenuComponent -->
<g id="node3" class="node">
<title>ClientMenuComponent</title>
<polygon fill="#ffffb3" stroke="black" points="1660.21,-122 1511.79,-122 1511.79,-86 1660.21,-86 1660.21,-122"/>
<text text-anchor="middle" x="1586" y="-99.8" font-family="Times,serif" font-size="14.00">ClientMenuComponent</text>
</g>
<!-- ClientMenuComponent&#45;&gt;AppModule -->
<g id="edge3" class="edge">
<title>ClientMenuComponent&#45;&gt;AppModule</title>
<path fill="none" stroke="black" d="M1586,-122.19C1586,-137.18 1586,-156 1586,-156 1586,-156 1362.77,-156 1362.77,-156"/>
<polygon fill="black" stroke="black" points="1362.77,-152.5 1352.77,-156 1362.77,-159.5 1362.77,-152.5"/>
</g>
<!-- ClientMenuItemComponent -->
<g id="node4" class="node">
<title>ClientMenuItemComponent</title>
<polygon fill="#ffffb3" stroke="black" points="1493.87,-122 1320.13,-122 1320.13,-86 1493.87,-86 1493.87,-122"/>
<text text-anchor="middle" x="1407" y="-99.8" font-family="Times,serif" font-size="14.00">ClientMenuItemComponent</text>
</g>
<!-- ClientMenuItemComponent&#45;&gt;AppModule -->
<g id="edge4" class="edge">
<title>ClientMenuItemComponent&#45;&gt;AppModule</title>
<path fill="none" stroke="black" d="M1336.45,-122.11C1336.45,-122.11 1336.45,-140.99 1336.45,-140.99"/>
<polygon fill="black" stroke="black" points="1332.95,-140.99 1336.45,-150.99 1339.95,-140.99 1332.95,-140.99"/>
</g>
<!-- ClientMenuRowComponent -->
<g id="node5" class="node">
<title>ClientMenuRowComponent</title>
<polygon fill="#ffffb3" stroke="black" points="1302.16,-122 1127.84,-122 1127.84,-86 1302.16,-86 1302.16,-122"/>
<text text-anchor="middle" x="1215" y="-99.8" font-family="Times,serif" font-size="14.00">ClientMenuRowComponent</text>
</g>
<!-- ClientMenuRowComponent&#45;&gt;AppModule -->
<g id="edge5" class="edge">
<title>ClientMenuRowComponent&#45;&gt;AppModule</title>
<path fill="none" stroke="black" d="M1285.75,-122.11C1285.75,-122.11 1285.75,-140.99 1285.75,-140.99"/>
<polygon fill="black" stroke="black" points="1282.25,-140.99 1285.75,-150.99 1289.25,-140.99 1282.25,-140.99"/>
</g>
<!-- ConfirmEmailComponent -->
<g id="node6" class="node">
<title>ConfirmEmailComponent</title>
<polygon fill="#ffffb3" stroke="black" points="1110.21,-122 947.79,-122 947.79,-86 1110.21,-86 1110.21,-122"/>
<text text-anchor="middle" x="1029" y="-99.8" font-family="Times,serif" font-size="14.00">ConfirmEmailComponent</text>
</g>
<!-- ConfirmEmailComponent&#45;&gt;AppModule -->
<g id="edge6" class="edge">
<title>ConfirmEmailComponent&#45;&gt;AppModule</title>
<path fill="none" stroke="black" d="M1029,-122.19C1029,-137.18 1029,-156 1029,-156 1029,-156 1259.09,-156 1259.09,-156"/>
<polygon fill="black" stroke="black" points="1259.09,-159.5 1269.09,-156 1259.09,-152.5 1259.09,-159.5"/>
</g>
<!-- FullPdfViewerComponent -->
<g id="node7" class="node">
<title>FullPdfViewerComponent</title>
<polygon fill="#ffffb3" stroke="black" points="930.03,-122 765.97,-122 765.97,-86 930.03,-86 930.03,-122"/>
<text text-anchor="middle" x="848" y="-99.8" font-family="Times,serif" font-size="14.00">FullPdfViewerComponent</text>
</g>
<!-- FullPdfViewerComponent&#45;&gt;AppModule -->
<g id="edge7" class="edge">
<title>FullPdfViewerComponent&#45;&gt;AppModule</title>
<path fill="none" stroke="black" d="M848,-122.03C848,-138.4 848,-160 848,-160 848,-160 1259.1,-160 1259.1,-160"/>
<polygon fill="black" stroke="black" points="1259.1,-163.5 1269.1,-160 1259.1,-156.5 1259.1,-163.5"/>
</g>
<!-- LoginComponent -->
<g id="node8" class="node">
<title>LoginComponent</title>
<polygon fill="#ffffb3" stroke="black" points="747.28,-122 632.72,-122 632.72,-86 747.28,-86 747.28,-122"/>
<text text-anchor="middle" x="690" y="-99.8" font-family="Times,serif" font-size="14.00">LoginComponent</text>
</g>
<!-- LoginComponent&#45;&gt;AppModule -->
<g id="edge8" class="edge">
<title>LoginComponent&#45;&gt;AppModule</title>
<path fill="none" stroke="black" d="M690,-122.3C690,-140.27 690,-165 690,-165 690,-165 1259.29,-165 1259.29,-165"/>
<polygon fill="black" stroke="black" points="1259.29,-168.5 1269.29,-165 1259.29,-161.5 1259.29,-168.5"/>
</g>
<!-- QRGeneratorComponent -->
<g id="node9" class="node">
<title>QRGeneratorComponent</title>
<polygon fill="#ffffb3" stroke="black" points="614.24,-122 457.76,-122 457.76,-86 614.24,-86 614.24,-122"/>
<text text-anchor="middle" x="536" y="-99.8" font-family="Times,serif" font-size="14.00">QRGeneratorComponent</text>
</g>
<!-- QRGeneratorComponent&#45;&gt;AppModule -->
<g id="edge9" class="edge">
<title>QRGeneratorComponent&#45;&gt;AppModule</title>
<path fill="none" stroke="black" d="M536,-122.11C536,-141.34 536,-169 536,-169 536,-169 1259.33,-169 1259.33,-169"/>
<polygon fill="black" stroke="black" points="1259.33,-172.5 1269.33,-169 1259.33,-165.5 1259.33,-172.5"/>
</g>
<!-- RecoverComponent -->
<g id="node10" class="node">
<title>RecoverComponent</title>
<polygon fill="#ffffb3" stroke="black" points="439.97,-122 312.03,-122 312.03,-86 439.97,-86 439.97,-122"/>
<text text-anchor="middle" x="376" y="-99.8" font-family="Times,serif" font-size="14.00">RecoverComponent</text>
</g>
<!-- RecoverComponent&#45;&gt;AppModule -->
<g id="edge10" class="edge">
<title>RecoverComponent&#45;&gt;AppModule</title>
<path fill="none" stroke="black" d="M376,-122.03C376,-142.77 376,-174 376,-174 376,-174 1259.31,-174 1259.31,-174"/>
<polygon fill="black" stroke="black" points="1259.31,-177.5 1269.31,-174 1259.31,-170.5 1259.31,-177.5"/>
</g>
<!-- SignUpComponent -->
<g id="node11" class="node">
<title>SignUpComponent</title>
<polygon fill="#ffffb3" stroke="black" points="294.11,-122 169.89,-122 169.89,-86 294.11,-86 294.11,-122"/>
<text text-anchor="middle" x="232" y="-99.8" font-family="Times,serif" font-size="14.00">SignUpComponent</text>
</g>
<!-- SignUpComponent&#45;&gt;AppModule -->
<g id="edge11" class="edge">
<title>SignUpComponent&#45;&gt;AppModule</title>
<path fill="none" stroke="black" d="M232,-122.29C232,-144.21 232,-178 232,-178 232,-178 1259.03,-178 1259.03,-178"/>
<polygon fill="black" stroke="black" points="1259.03,-181.5 1269.03,-178 1259.03,-174.5 1259.03,-181.5"/>
</g>
<!-- ckeditorComponent -->
<g id="node12" class="node">
<title>ckeditorComponent</title>
<polygon fill="#ffffb3" stroke="black" points="151.7,-122 24.3,-122 24.3,-86 151.7,-86 151.7,-122"/>
<text text-anchor="middle" x="88" y="-99.8" font-family="Times,serif" font-size="14.00">ckeditorComponent</text>
</g>
<!-- ckeditorComponent&#45;&gt;AppModule -->
<g id="edge12" class="edge">
<title>ckeditorComponent&#45;&gt;AppModule</title>
<path fill="none" stroke="black" d="M88,-122.32C88,-145.66 88,-183 88,-183 88,-183 1259.26,-183 1259.26,-183"/>
<polygon fill="black" stroke="black" points="1259.26,-186.5 1269.26,-183 1259.26,-179.5 1259.26,-186.5"/>
</g>
<!-- AppComponent  -->
<g id="node18" class="node">
<title>AppComponent </title>
<polygon fill="#80b1d3" stroke="black" points="1365.44,-252 1256.56,-252 1256.56,-216 1365.44,-216 1365.44,-252"/>
<text text-anchor="middle" x="1311" y="-229.8" font-family="Times,serif" font-size="14.00">AppComponent </text>
</g>
<!-- AppModule&#45;&gt;AppComponent  -->
<g id="edge17" class="edge">
<title>AppModule&#45;&gt;AppComponent </title>
<path fill="none" stroke="black" stroke-dasharray="1,5" d="M1311,-187.11C1311,-187.11 1311,-205.99 1311,-205.99"/>
<polygon fill="black" stroke="black" points="1307.5,-205.99 1311,-215.99 1314.5,-205.99 1307.5,-205.99"/>
</g>
<!-- AppRoutingModule -->
<g id="node14" class="node">
<title>AppRoutingModule</title>
<polygon fill="#8dd3c7" stroke="black" points="2527.27,-122 2524.27,-126 2503.27,-126 2500.27,-122 2398.73,-122 2398.73,-86 2527.27,-86 2527.27,-122"/>
<text text-anchor="middle" x="2463" y="-99.8" font-family="Times,serif" font-size="14.00">AppRoutingModule</text>
</g>
<!-- AppRoutingModule&#45;&gt;AppModule -->
<g id="edge13" class="edge">
<title>AppRoutingModule&#45;&gt;AppModule</title>
<path fill="none" stroke="black" d="M2463,-122.32C2463,-145.66 2463,-183 2463,-183 2463,-183 1362.68,-183 1362.68,-183"/>
<polygon fill="black" stroke="black" points="1362.68,-179.5 1352.68,-183 1362.68,-186.5 1362.68,-179.5"/>
</g>
<!-- LoggedModule -->
<g id="node15" class="node">
<title>LoggedModule</title>
<polygon fill="#8dd3c7" stroke="black" points="2380.32,-122 2377.32,-126 2356.32,-126 2353.32,-122 2277.68,-122 2277.68,-86 2380.32,-86 2380.32,-122"/>
<text text-anchor="middle" x="2329" y="-99.8" font-family="Times,serif" font-size="14.00">LoggedModule</text>
</g>
<!-- LoggedModule&#45;&gt;AppModule -->
<g id="edge14" class="edge">
<title>LoggedModule&#45;&gt;AppModule</title>
<path fill="none" stroke="black" d="M2329,-122.29C2329,-144.21 2329,-178 2329,-178 2329,-178 1362.8,-178 1362.8,-178"/>
<polygon fill="black" stroke="black" points="1362.8,-174.5 1352.8,-178 1362.8,-181.5 1362.8,-174.5"/>
</g>
<!-- SharedModule -->
<g id="node16" class="node">
<title>SharedModule</title>
<polygon fill="#8dd3c7" stroke="black" points="2260.42,-122 2257.42,-126 2236.42,-126 2233.42,-122 2161.58,-122 2161.58,-86 2260.42,-86 2260.42,-122"/>
<text text-anchor="middle" x="2211" y="-99.8" font-family="Times,serif" font-size="14.00">SharedModule</text>
</g>
<!-- SharedModule&#45;&gt;AppModule -->
<g id="edge15" class="edge">
<title>SharedModule&#45;&gt;AppModule</title>
<path fill="none" stroke="black" d="M2211,-122.03C2211,-142.77 2211,-174 2211,-174 2211,-174 1362.9,-174 1362.9,-174"/>
<polygon fill="black" stroke="black" points="1362.9,-170.5 1352.9,-174 1362.9,-177.5 1362.9,-170.5"/>
</g>
<!-- TranslocoRootModule -->
<g id="node17" class="node">
<title>TranslocoRootModule</title>
<polygon fill="#8dd3c7" stroke="black" points="2143.25,-122 2140.25,-126 2119.25,-126 2116.25,-122 2000.75,-122 2000.75,-86 2143.25,-86 2143.25,-122"/>
<text text-anchor="middle" x="2072" y="-99.8" font-family="Times,serif" font-size="14.00">TranslocoRootModule</text>
</g>
<!-- TranslocoRootModule&#45;&gt;AppModule -->
<g id="edge16" class="edge">
<title>TranslocoRootModule&#45;&gt;AppModule</title>
<path fill="none" stroke="black" d="M2072,-122.11C2072,-141.34 2072,-169 2072,-169 2072,-169 1362.73,-169 1362.73,-169"/>
<polygon fill="black" stroke="black" points="1362.73,-165.5 1352.73,-169 1362.73,-172.5 1362.73,-165.5"/>
</g>
</g>
</svg>
