<?xml version="1.0" encoding="UTF-8" standalone="no"?>
<!DOCTYPE svg PUBLIC "-//W3C//DTD SVG 1.1//EN"
 "http://www.w3.org/Graphics/SVG/1.1/DTD/svg11.dtd">
<!-- Generated by graphviz version 2.47.0 (20210316.0004)
 -->
<!-- Title: dependencies Pages: 1 -->
<svg width="4897pt" height="211pt"
 viewBox="0.00 0.00 4897.00 211.00" xmlns="http://www.w3.org/2000/svg" xmlns:xlink="http://www.w3.org/1999/xlink">
<g id="graph0" class="graph" transform="scale(1 1) rotate(0) translate(4 207)">
<title>dependencies</title>
<polygon fill="white" stroke="transparent" points="-4,4 -4,-207 4893,-207 4893,4 -4,4"/>
<text text-anchor="start" x="2423.51" y="-42.4" font-family="Times-12" font-weight="bold" font-size="14.00">Legend</text>
<polygon fill="#ffffb3" stroke="transparent" points="2210.5,-10 2210.5,-30 2230.5,-30 2230.5,-10 2210.5,-10"/>
<text text-anchor="start" x="2234.13" y="-15.4" font-family="Times-12" font-size="14.00"> &#160;Declarations</text>
<polygon fill="#8dd3c7" stroke="transparent" points="2323.5,-10 2323.5,-30 2343.5,-30 2343.5,-10 2323.5,-10"/>
<text text-anchor="start" x="2347.23" y="-15.4" font-family="Times-12" font-size="14.00"> &#160;Module</text>
<polygon fill="#80b1d3" stroke="transparent" points="2409.5,-10 2409.5,-30 2429.5,-30 2429.5,-10 2409.5,-10"/>
<text text-anchor="start" x="2433.28" y="-15.4" font-family="Times-12" font-size="14.00"> &#160;Bootstrap</text>
<polygon fill="#fdb462" stroke="transparent" points="2506.5,-10 2506.5,-30 2526.5,-30 2526.5,-10 2506.5,-10"/>
<text text-anchor="start" x="2530.17" y="-15.4" font-family="Times-12" font-size="14.00"> &#160;Providers</text>
<polygon fill="#fb8072" stroke="transparent" points="2602.5,-10 2602.5,-30 2622.5,-30 2622.5,-10 2602.5,-10"/>
<text text-anchor="start" x="2626.23" y="-15.4" font-family="Times-12" font-size="14.00"> &#160;Exports</text>
<g id="clust1" class="cluster">
<title>cluster_LoggedModule</title>
<polygon fill="none" stroke="black" stroke-dasharray="1,5" points="8,-70 8,-195 4881,-195 4881,-70 8,-70"/>
</g>
<g id="clust29" class="cluster">
<title>cluster_LoggedModule_imports</title>
<polygon fill="none" stroke="black" points="4432,-78 4432,-130 4873,-130 4873,-78 4432,-78"/>
</g>
<g id="clust32" class="cluster">
<title>cluster_LoggedModule_providers</title>
<polygon fill="none" stroke="black" points="4262,-78 4262,-130 4424,-130 4424,-78 4262,-78"/>
</g>
<g id="clust2" class="cluster">
<title>cluster_LoggedModule_declarations</title>
<polygon fill="none" stroke="black" points="16,-78 16,-130 4254,-130 4254,-78 16,-78"/>
</g>
<!-- AdminComponent -->
<g id="node1" class="node">
<title>AdminComponent</title>
<polygon fill="#ffffb3" stroke="black" points="4246.22,-122 4125.78,-122 4125.78,-86 4246.22,-86 4246.22,-122"/>
<text text-anchor="middle" x="4186" y="-99.8" font-family="Times,serif" font-size="14.00">AdminComponent</text>
</g>
<!-- LoggedModule -->
<g id="node27" class="node">
<title>LoggedModule</title>
<polygon fill="#8dd3c7" stroke="black" points="2531.32,-187 2528.32,-191 2507.32,-191 2504.32,-187 2428.68,-187 2428.68,-151 2531.32,-151 2531.32,-187"/>
<text text-anchor="middle" x="2480" y="-164.8" font-family="Times,serif" font-size="14.00">LoggedModule</text>
</g>
<!-- AdminComponent&#45;&gt;LoggedModule -->
<g id="edge1" class="edge">
<title>AdminComponent&#45;&gt;LoggedModule</title>
<path fill="none" stroke="black" d="M4186,-122.28C4186,-143.32 4186,-175 4186,-175 4186,-175 2541.52,-175 2541.52,-175"/>
<polygon fill="black" stroke="black" points="2541.52,-171.5 2531.52,-175 2541.52,-178.5 2541.52,-171.5"/>
</g>
<!-- ConfigurationComponent -->
<g id="node2" class="node">
<title>ConfigurationComponent</title>
<polygon fill="#ffffb3" stroke="black" points="4107.88,-122 3948.12,-122 3948.12,-86 4107.88,-86 4107.88,-122"/>
<text text-anchor="middle" x="4028" y="-99.8" font-family="Times,serif" font-size="14.00">ConfigurationComponent</text>
</g>
<!-- ConfigurationComponent&#45;&gt;LoggedModule -->
<g id="edge2" class="edge">
<title>ConfigurationComponent&#45;&gt;LoggedModule</title>
<path fill="none" stroke="black" d="M4028,-122.13C4028,-142.57 4028,-173 4028,-173 4028,-173 2541.5,-173 2541.5,-173"/>
<polygon fill="black" stroke="black" points="2541.5,-169.5 2531.5,-173 2541.5,-176.5 2541.5,-169.5"/>
</g>
<!-- DashboardComponent -->
<g id="node3" class="node">
<title>DashboardComponent</title>
<polygon fill="#ffffb3" stroke="black" points="3929.97,-122 3788.03,-122 3788.03,-86 3929.97,-86 3929.97,-122"/>
<text text-anchor="middle" x="3859" y="-99.8" font-family="Times,serif" font-size="14.00">DashboardComponent</text>
</g>
<!-- DashboardComponent&#45;&gt;LoggedModule -->
<g id="edge3" class="edge">
<title>DashboardComponent&#45;&gt;LoggedModule</title>
<path fill="none" stroke="black" d="M3859,-122.31C3859,-142.15 3859,-171 3859,-171 3859,-171 2541.54,-171 2541.54,-171"/>
<polygon fill="black" stroke="black" points="2541.54,-167.5 2531.54,-171 2541.54,-174.5 2541.54,-167.5"/>
</g>
<!-- DaySelectorComponent -->
<g id="node4" class="node">
<title>DaySelectorComponent</title>
<polygon fill="#ffffb3" stroke="black" points="3770.02,-122 3619.98,-122 3619.98,-86 3770.02,-86 3770.02,-122"/>
<text text-anchor="middle" x="3695" y="-99.8" font-family="Times,serif" font-size="14.00">DaySelectorComponent</text>
</g>
<!-- DaySelectorComponent&#45;&gt;LoggedModule -->
<g id="edge4" class="edge">
<title>DaySelectorComponent&#45;&gt;LoggedModule</title>
<path fill="none" stroke="black" d="M3695,-122.17C3695,-141.09 3695,-168 3695,-168 3695,-168 2541.43,-168 2541.43,-168"/>
<polygon fill="black" stroke="black" points="2541.43,-164.5 2531.43,-168 2541.43,-171.5 2541.43,-164.5"/>
</g>
<!-- DishCreationComponent -->
<g id="node5" class="node">
<title>DishCreationComponent</title>
<polygon fill="#ffffb3" stroke="black" points="3601.98,-122 3446.02,-122 3446.02,-86 3601.98,-86 3601.98,-122"/>
<text text-anchor="middle" x="3524" y="-99.8" font-family="Times,serif" font-size="14.00">DishCreationComponent</text>
</g>
<!-- DishCreationComponent&#45;&gt;LoggedModule -->
<g id="edge5" class="edge">
<title>DishCreationComponent&#45;&gt;LoggedModule</title>
<path fill="none" stroke="black" d="M3524,-122.27C3524,-140.56 3524,-166 3524,-166 3524,-166 2541.42,-166 2541.42,-166"/>
<polygon fill="black" stroke="black" points="2541.42,-162.5 2531.42,-166 2541.42,-169.5 2541.42,-162.5"/>
</g>
<!-- DishItemComponent -->
<g id="node6" class="node">
<title>DishItemComponent</title>
<polygon fill="#ffffb3" stroke="black" points="3427.93,-122 3294.07,-122 3294.07,-86 3427.93,-86 3427.93,-122"/>
<text text-anchor="middle" x="3361" y="-99.8" font-family="Times,serif" font-size="14.00">DishItemComponent</text>
</g>
<!-- DishItemComponent&#45;&gt;LoggedModule -->
<g id="edge6" class="edge">
<title>DishItemComponent&#45;&gt;LoggedModule</title>
<path fill="none" stroke="black" d="M3361,-122.02C3361,-139.37 3361,-163 3361,-163 3361,-163 2541.17,-163 2541.17,-163"/>
<polygon fill="black" stroke="black" points="2541.17,-159.5 2531.17,-163 2541.17,-166.5 2541.17,-159.5"/>
</g>
<!-- DishListComponent -->
<g id="node7" class="node">
<title>DishListComponent</title>
<polygon fill="#ffffb3" stroke="black" points="3276.55,-122 3147.45,-122 3147.45,-86 3276.55,-86 3276.55,-122"/>
<text text-anchor="middle" x="3212" y="-99.8" font-family="Times,serif" font-size="14.00">DishListComponent</text>
</g>
<!-- DishListComponent&#45;&gt;LoggedModule -->
<g id="edge7" class="edge">
<title>DishListComponent&#45;&gt;LoggedModule</title>
<path fill="none" stroke="black" d="M3212,-122.04C3212,-138.73 3212,-161 3212,-161 3212,-161 2541.18,-161 2541.18,-161"/>
<polygon fill="black" stroke="black" points="2541.18,-157.5 2531.18,-161 2541.18,-164.5 2541.18,-157.5"/>
</g>
<!-- ManageSubComponent -->
<g id="node8" class="node">
<title>ManageSubComponent</title>
<polygon fill="#ffffb3" stroke="black" points="3129.2,-122 2980.8,-122 2980.8,-86 3129.2,-86 3129.2,-122"/>
<text text-anchor="middle" x="3055" y="-99.8" font-family="Times,serif" font-size="14.00">ManageSubComponent</text>
</g>
<!-- ManageSubComponent&#45;&gt;LoggedModule -->
<g id="edge8" class="edge">
<title>ManageSubComponent&#45;&gt;LoggedModule</title>
<path fill="none" stroke="black" d="M3055,-122.01C3055,-138.05 3055,-159 3055,-159 3055,-159 2541.28,-159 2541.28,-159"/>
<polygon fill="black" stroke="black" points="2541.28,-155.5 2531.28,-159 2541.28,-162.5 2541.28,-155.5"/>
</g>
<!-- MenuCreationComponent -->
<g id="node9" class="node">
<title>MenuCreationComponent</title>
<polygon fill="#ffffb3" stroke="black" points="2963.2,-122 2800.8,-122 2800.8,-86 2963.2,-86 2963.2,-122"/>
<text text-anchor="middle" x="2882" y="-99.8" font-family="Times,serif" font-size="14.00">MenuCreationComponent</text>
</g>
<!-- MenuCreationComponent&#45;&gt;LoggedModule -->
<g id="edge9" class="edge">
<title>MenuCreationComponent&#45;&gt;LoggedModule</title>
<path fill="none" stroke="black" d="M2882,-122.19C2882,-137.18 2882,-156 2882,-156 2882,-156 2541.32,-156 2541.32,-156"/>
<polygon fill="black" stroke="black" points="2541.32,-152.5 2531.32,-156 2541.32,-159.5 2541.32,-152.5"/>
</g>
<!-- MenuItemComponent -->
<g id="node10" class="node">
<title>MenuItemComponent</title>
<polygon fill="#ffffb3" stroke="black" points="2782.65,-122 2643.35,-122 2643.35,-86 2782.65,-86 2782.65,-122"/>
<text text-anchor="middle" x="2713" y="-99.8" font-family="Times,serif" font-size="14.00">MenuItemComponent</text>
</g>
<!-- MenuItemComponent&#45;&gt;LoggedModule -->
<g id="edge10" class="edge">
<title>MenuItemComponent&#45;&gt;LoggedModule</title>
<path fill="none" stroke="black" d="M2713,-122.05C2713,-136.37 2713,-154 2713,-154 2713,-154 2541.42,-154 2541.42,-154"/>
<polygon fill="black" stroke="black" points="2541.42,-150.5 2531.42,-154 2541.42,-157.5 2541.42,-150.5"/>
</g>
<!-- MenuListComponent -->
<g id="node11" class="node">
<title>MenuListComponent</title>
<polygon fill="#ffffb3" stroke="black" points="2624.77,-122 2489.23,-122 2489.23,-86 2624.77,-86 2624.77,-122"/>
<text text-anchor="middle" x="2557" y="-99.8" font-family="Times,serif" font-size="14.00">MenuListComponent</text>
</g>
<!-- MenuListComponent&#45;&gt;LoggedModule -->
<g id="edge11" class="edge">
<title>MenuListComponent&#45;&gt;LoggedModule</title>
<path fill="none" stroke="black" d="M2510.14,-122.11C2510.14,-122.11 2510.14,-140.99 2510.14,-140.99"/>
<polygon fill="black" stroke="black" points="2506.64,-140.99 2510.14,-150.99 2513.64,-140.99 2506.64,-140.99"/>
</g>
<!-- MenuPdfComponent -->
<g id="node12" class="node">
<title>MenuPdfComponent</title>
<polygon fill="#ffffb3" stroke="black" points="2470.94,-122 2337.06,-122 2337.06,-86 2470.94,-86 2470.94,-122"/>
<text text-anchor="middle" x="2404" y="-99.8" font-family="Times,serif" font-size="14.00">MenuPdfComponent</text>
</g>
<!-- MenuPdfComponent&#45;&gt;LoggedModule -->
<g id="edge12" class="edge">
<title>MenuPdfComponent&#45;&gt;LoggedModule</title>
<path fill="none" stroke="black" d="M2449.78,-122.11C2449.78,-122.11 2449.78,-140.99 2449.78,-140.99"/>
<polygon fill="black" stroke="black" points="2446.28,-140.99 2449.78,-150.99 2453.28,-140.99 2446.28,-140.99"/>
</g>
<!-- QrDownloadComponent -->
<g id="node13" class="node">
<title>QrDownloadComponent</title>
<polygon fill="#ffffb3" stroke="black" points="2319.42,-122 2164.58,-122 2164.58,-86 2319.42,-86 2319.42,-122"/>
<text text-anchor="middle" x="2242" y="-99.8" font-family="Times,serif" font-size="14.00">QrDownloadComponent</text>
</g>
<!-- QrDownloadComponent&#45;&gt;LoggedModule -->
<g id="edge13" class="edge">
<title>QrDownloadComponent&#45;&gt;LoggedModule</title>
<path fill="none" stroke="black" d="M2242,-122.05C2242,-136.37 2242,-154 2242,-154 2242,-154 2418.65,-154 2418.65,-154"/>
<polygon fill="black" stroke="black" points="2418.65,-157.5 2428.65,-154 2418.65,-150.5 2418.65,-157.5"/>
</g>
<!-- RestaurantComponent -->
<g id="node14" class="node">
<title>RestaurantComponent</title>
<polygon fill="#ffffb3" stroke="black" points="2146.7,-122 2005.3,-122 2005.3,-86 2146.7,-86 2146.7,-122"/>
<text text-anchor="middle" x="2076" y="-99.8" font-family="Times,serif" font-size="14.00">RestaurantComponent</text>
</g>
<!-- RestaurantComponent&#45;&gt;LoggedModule -->
<g id="edge14" class="edge">
<title>RestaurantComponent&#45;&gt;LoggedModule</title>
<path fill="none" stroke="black" d="M2076,-122.19C2076,-137.18 2076,-156 2076,-156 2076,-156 2418.83,-156 2418.83,-156"/>
<polygon fill="black" stroke="black" points="2418.83,-159.5 2428.83,-156 2418.83,-152.5 2418.83,-159.5"/>
</g>
<!-- RestaurantsComponent -->
<g id="node15" class="node">
<title>RestaurantsComponent</title>
<polygon fill="#ffffb3" stroke="black" points="1987.14,-122 1840.86,-122 1840.86,-86 1987.14,-86 1987.14,-122"/>
<text text-anchor="middle" x="1914" y="-99.8" font-family="Times,serif" font-size="14.00">RestaurantsComponent</text>
</g>
<!-- RestaurantsComponent&#45;&gt;LoggedModule -->
<g id="edge15" class="edge">
<title>RestaurantsComponent&#45;&gt;LoggedModule</title>
<path fill="none" stroke="black" d="M1914,-122.01C1914,-138.05 1914,-159 1914,-159 1914,-159 2418.77,-159 2418.77,-159"/>
<polygon fill="black" stroke="black" points="2418.77,-162.5 2428.77,-159 2418.77,-155.5 2418.77,-162.5"/>
</g>
<!-- ScheduleSelectorComponent -->
<g id="node16" class="node">
<title>ScheduleSelectorComponent</title>
<polygon fill="#ffffb3" stroke="black" points="1822.02,-122 1643.98,-122 1643.98,-86 1822.02,-86 1822.02,-122"/>
<text text-anchor="middle" x="1733" y="-99.8" font-family="Times,serif" font-size="14.00">ScheduleSelectorComponent</text>
</g>
<!-- ScheduleSelectorComponent&#45;&gt;LoggedModule -->
<g id="edge16" class="edge">
<title>ScheduleSelectorComponent&#45;&gt;LoggedModule</title>
<path fill="none" stroke="black" d="M1733,-122.04C1733,-138.73 1733,-161 1733,-161 1733,-161 2418.66,-161 2418.66,-161"/>
<polygon fill="black" stroke="black" points="2418.66,-164.5 2428.66,-161 2418.66,-157.5 2418.66,-164.5"/>
</g>
<!-- SeasoningCreationComponent -->
<g id="node17" class="node">
<title>SeasoningCreationComponent</title>
<polygon fill="#ffffb3" stroke="black" points="1625.59,-122 1438.41,-122 1438.41,-86 1625.59,-86 1625.59,-122"/>
<text text-anchor="middle" x="1532" y="-99.8" font-family="Times,serif" font-size="14.00">SeasoningCreationComponent</text>
</g>
<!-- SeasoningCreationComponent&#45;&gt;LoggedModule -->
<g id="edge17" class="edge">
<title>SeasoningCreationComponent&#45;&gt;LoggedModule</title>
<path fill="none" stroke="black" d="M1532,-122.02C1532,-139.37 1532,-163 1532,-163 1532,-163 2418.7,-163 2418.7,-163"/>
<polygon fill="black" stroke="black" points="2418.7,-166.5 2428.7,-163 2418.7,-159.5 2418.7,-166.5"/>
</g>
<!-- SeasoningItemComponent -->
<g id="node18" class="node">
<title>SeasoningItemComponent</title>
<polygon fill="#ffffb3" stroke="black" points="1420.04,-122 1255.96,-122 1255.96,-86 1420.04,-86 1420.04,-122"/>
<text text-anchor="middle" x="1338" y="-99.8" font-family="Times,serif" font-size="14.00">SeasoningItemComponent</text>
</g>
<!-- SeasoningItemComponent&#45;&gt;LoggedModule -->
<g id="edge18" class="edge">
<title>SeasoningItemComponent&#45;&gt;LoggedModule</title>
<path fill="none" stroke="black" d="M1338,-122.27C1338,-140.56 1338,-166 1338,-166 1338,-166 2418.71,-166 2418.71,-166"/>
<polygon fill="black" stroke="black" points="2418.71,-169.5 2428.71,-166 2418.71,-162.5 2418.71,-169.5"/>
</g>
<!-- SeasoningListComponent -->
<g id="node19" class="node">
<title>SeasoningListComponent</title>
<polygon fill="#ffffb3" stroke="black" points="1237.16,-122 1076.84,-122 1076.84,-86 1237.16,-86 1237.16,-122"/>
<text text-anchor="middle" x="1157" y="-99.8" font-family="Times,serif" font-size="14.00">SeasoningListComponent</text>
</g>
<!-- SeasoningListComponent&#45;&gt;LoggedModule -->
<g id="edge19" class="edge">
<title>SeasoningListComponent&#45;&gt;LoggedModule</title>
<path fill="none" stroke="black" d="M1157,-122.17C1157,-141.09 1157,-168 1157,-168 1157,-168 2418.54,-168 2418.54,-168"/>
<polygon fill="black" stroke="black" points="2418.54,-171.5 2428.54,-168 2418.54,-164.5 2418.54,-171.5"/>
</g>
<!-- SideNavComponent -->
<g id="node20" class="node">
<title>SideNavComponent</title>
<polygon fill="#ffffb3" stroke="black" points="1058.54,-122 929.46,-122 929.46,-86 1058.54,-86 1058.54,-122"/>
<text text-anchor="middle" x="994" y="-99.8" font-family="Times,serif" font-size="14.00">SideNavComponent</text>
</g>
<!-- SideNavComponent&#45;&gt;LoggedModule -->
<g id="edge20" class="edge">
<title>SideNavComponent&#45;&gt;LoggedModule</title>
<path fill="none" stroke="black" d="M994,-122.31C994,-142.15 994,-171 994,-171 994,-171 2418.42,-171 2418.42,-171"/>
<polygon fill="black" stroke="black" points="2418.42,-174.5 2428.42,-171 2418.42,-167.5 2418.42,-174.5"/>
</g>
<!-- SubscriptionComponent -->
<g id="node21" class="node">
<title>SubscriptionComponent</title>
<polygon fill="#ffffb3" stroke="black" points="911.11,-122 758.89,-122 758.89,-86 911.11,-86 911.11,-122"/>
<text text-anchor="middle" x="835" y="-99.8" font-family="Times,serif" font-size="14.00">SubscriptionComponent</text>
</g>
<!-- SubscriptionComponent&#45;&gt;LoggedModule -->
<g id="edge21" class="edge">
<title>SubscriptionComponent&#45;&gt;LoggedModule</title>
<path fill="none" stroke="black" d="M835,-122.13C835,-142.57 835,-173 835,-173 835,-173 2418.51,-173 2418.51,-173"/>
<polygon fill="black" stroke="black" points="2418.51,-176.5 2428.51,-173 2418.51,-169.5 2418.51,-176.5"/>
</g>
<!-- TConfigComponent -->
<g id="node22" class="node">
<title>TConfigComponent</title>
<polygon fill="#ffffb3" stroke="black" points="741.27,-122 612.73,-122 612.73,-86 741.27,-86 741.27,-122"/>
<text text-anchor="middle" x="677" y="-99.8" font-family="Times,serif" font-size="14.00">TConfigComponent</text>
</g>
<!-- TConfigComponent&#45;&gt;LoggedModule -->
<g id="edge22" class="edge">
<title>TConfigComponent&#45;&gt;LoggedModule</title>
<path fill="none" stroke="black" d="M677,-122.28C677,-143.32 677,-175 677,-175 677,-175 2418.47,-175 2418.47,-175"/>
<polygon fill="black" stroke="black" points="2418.47,-178.5 2428.47,-175 2418.47,-171.5 2418.47,-178.5"/>
</g>
<!-- TItemDishComponent -->
<g id="node23" class="node">
<title>TItemDishComponent</title>
<polygon fill="#ffffb3" stroke="black" points="594.98,-122 453.02,-122 453.02,-86 594.98,-86 594.98,-122"/>
<text text-anchor="middle" x="524" y="-99.8" font-family="Times,serif" font-size="14.00">TItemDishComponent</text>
</g>
<!-- TItemDishComponent&#45;&gt;LoggedModule -->
<g id="edge23" class="edge">
<title>TItemDishComponent&#45;&gt;LoggedModule</title>
<path fill="none" stroke="black" d="M524,-122.29C524,-144.21 524,-178 524,-178 524,-178 2418.69,-178 2418.69,-178"/>
<polygon fill="black" stroke="black" points="2418.69,-181.5 2428.69,-178 2418.69,-174.5 2418.69,-181.5"/>
</g>
<!-- TItemStringComponent -->
<g id="node24" class="node">
<title>TItemStringComponent</title>
<polygon fill="#ffffb3" stroke="black" points="434.77,-122 285.23,-122 285.23,-86 434.77,-86 434.77,-122"/>
<text text-anchor="middle" x="360" y="-99.8" font-family="Times,serif" font-size="14.00">TItemStringComponent</text>
</g>
<!-- TItemStringComponent&#45;&gt;LoggedModule -->
<g id="edge24" class="edge">
<title>TItemStringComponent&#45;&gt;LoggedModule</title>
<path fill="none" stroke="black" d="M360,-122.01C360,-144.49 360,-180 360,-180 360,-180 2418.65,-180 2418.65,-180"/>
<polygon fill="black" stroke="black" points="2418.65,-183.5 2428.65,-180 2418.65,-176.5 2418.65,-183.5"/>
</g>
<!-- TListComponent -->
<g id="node25" class="node">
<title>TListComponent</title>
<polygon fill="#ffffb3" stroke="black" points="266.66,-122 155.34,-122 155.34,-86 266.66,-86 266.66,-122"/>
<text text-anchor="middle" x="211" y="-99.8" font-family="Times,serif" font-size="14.00">TListComponent</text>
</g>
<!-- TListComponent&#45;&gt;LoggedModule -->
<g id="edge25" class="edge">
<title>TListComponent&#45;&gt;LoggedModule</title>
<path fill="none" stroke="black" d="M211,-122.32C211,-145.66 211,-183 211,-183 211,-183 2418.62,-183 2418.62,-183"/>
<polygon fill="black" stroke="black" points="2418.62,-186.5 2428.62,-183 2418.62,-179.5 2418.62,-186.5"/>
</g>
<!-- UsersComponent -->
<g id="node26" class="node">
<title>UsersComponent</title>
<polygon fill="#ffffb3" stroke="black" points="137.7,-122 24.3,-122 24.3,-86 137.7,-86 137.7,-122"/>
<text text-anchor="middle" x="81" y="-99.8" font-family="Times,serif" font-size="14.00">UsersComponent</text>
</g>
<!-- UsersComponent&#45;&gt;LoggedModule -->
<g id="edge26" class="edge">
<title>UsersComponent&#45;&gt;LoggedModule</title>
<path fill="none" stroke="black" d="M81,-122.38C81,-146.28 81,-185 81,-185 81,-185 2418.78,-185 2418.78,-185"/>
<polygon fill="black" stroke="black" points="2418.78,-188.5 2428.78,-185 2418.78,-181.5 2418.78,-188.5"/>
</g>
<!-- LoggedRoutingModule -->
<g id="node28" class="node">
<title>LoggedRoutingModule</title>
<polygon fill="#8dd3c7" stroke="black" points="4864.94,-122 4861.94,-126 4840.94,-126 4837.94,-122 4717.06,-122 4717.06,-86 4864.94,-86 4864.94,-122"/>
<text text-anchor="middle" x="4791" y="-99.8" font-family="Times,serif" font-size="14.00">LoggedRoutingModule</text>
</g>
<!-- LoggedRoutingModule&#45;&gt;LoggedModule -->
<g id="edge27" class="edge">
<title>LoggedRoutingModule&#45;&gt;LoggedModule</title>
<path fill="none" stroke="black" d="M4791,-122.38C4791,-146.28 4791,-185 4791,-185 4791,-185 2541.23,-185 2541.23,-185"/>
<polygon fill="black" stroke="black" points="2541.23,-181.5 2531.23,-185 2541.23,-188.5 2541.23,-181.5"/>
</g>
<!-- SharedModule -->
<g id="node29" class="node">
<title>SharedModule</title>
<polygon fill="#8dd3c7" stroke="black" points="4699.42,-122 4696.42,-126 4675.42,-126 4672.42,-122 4600.58,-122 4600.58,-86 4699.42,-86 4699.42,-122"/>
<text text-anchor="middle" x="4650" y="-99.8" font-family="Times,serif" font-size="14.00">SharedModule</text>
</g>
<!-- SharedModule&#45;&gt;LoggedModule -->
<g id="edge28" class="edge">
<title>SharedModule&#45;&gt;LoggedModule</title>
<path fill="none" stroke="black" d="M4650,-122.32C4650,-145.66 4650,-183 4650,-183 4650,-183 2541.24,-183 2541.24,-183"/>
<polygon fill="black" stroke="black" points="2541.24,-179.5 2531.24,-183 2541.24,-186.5 2541.24,-179.5"/>
</g>
<!-- TranslocoRootModule -->
<g id="node30" class="node">
<title>TranslocoRootModule</title>
<polygon fill="#8dd3c7" stroke="black" points="4582.25,-122 4579.25,-126 4558.25,-126 4555.25,-122 4439.75,-122 4439.75,-86 4582.25,-86 4582.25,-122"/>
<text text-anchor="middle" x="4511" y="-99.8" font-family="Times,serif" font-size="14.00">TranslocoRootModule</text>
</g>
<!-- TranslocoRootModule&#45;&gt;LoggedModule -->
<g id="edge29" class="edge">
<title>TranslocoRootModule&#45;&gt;LoggedModule</title>
<path fill="none" stroke="black" d="M4511,-122.01C4511,-144.49 4511,-180 4511,-180 4511,-180 2541.22,-180 2541.22,-180"/>
<polygon fill="black" stroke="black" points="2541.22,-176.5 2531.22,-180 2541.22,-183.5 2541.22,-176.5"/>
</g>
<!-- AuthInterceptor -->
<g id="node31" class="node">
<title>AuthInterceptor</title>
<ellipse fill="#fdb462" stroke="black" cx="4343" cy="-104" rx="72.91" ry="18"/>
<text text-anchor="middle" x="4343" y="-99.8" font-family="Times,serif" font-size="14.00">AuthInterceptor</text>
</g>
<!-- AuthInterceptor&#45;&gt;LoggedModule -->
<g id="edge30" class="edge">
<title>AuthInterceptor&#45;&gt;LoggedModule</title>
<path fill="none" stroke="black" d="M4343,-122.29C4343,-144.21 4343,-178 4343,-178 4343,-178 2541.28,-178 2541.28,-178"/>
<polygon fill="black" stroke="black" points="2541.28,-174.5 2531.28,-178 2541.28,-181.5 2541.28,-174.5"/>
</g>
</g>
</svg>
