<?xml version="1.0" encoding="UTF-8" standalone="no"?>
<!DOCTYPE svg PUBLIC "-//W3C//DTD SVG 1.1//EN"
 "http://www.w3.org/Graphics/SVG/1.1/DTD/svg11.dtd">
<!-- Generated by graphviz version 2.47.0 (20210316.0004)
 -->
<!-- Title: dependencies Pages: 1 -->
<svg width="7256pt" height="428pt"
 viewBox="0.00 0.00 7256.00 428.00" xmlns="http://www.w3.org/2000/svg" xmlns:xlink="http://www.w3.org/1999/xlink">
<g id="graph0" class="graph" transform="scale(1 1) rotate(0) translate(4 424)">
<title>dependencies</title>
<polygon fill="white" stroke="transparent" points="-4,4 -4,-424 7252,-424 7252,4 -4,4"/>
<text text-anchor="start" x="3603.01" y="-42.4" font-family="Times-12" font-weight="bold" font-size="14.00">Legend</text>
<polygon fill="#ffffb3" stroke="transparent" points="3390,-10 3390,-30 3410,-30 3410,-10 3390,-10"/>
<text text-anchor="start" x="3413.63" y="-15.4" font-family="Times-12" font-size="14.00"> &#160;Declarations</text>
<polygon fill="#8dd3c7" stroke="transparent" points="3503,-10 3503,-30 3523,-30 3523,-10 3503,-10"/>
<text text-anchor="start" x="3526.73" y="-15.4" font-family="Times-12" font-size="14.00"> &#160;Module</text>
<polygon fill="#80b1d3" stroke="transparent" points="3589,-10 3589,-30 3609,-30 3609,-10 3589,-10"/>
<text text-anchor="start" x="3612.78" y="-15.4" font-family="Times-12" font-size="14.00"> &#160;Bootstrap</text>
<polygon fill="#fdb462" stroke="transparent" points="3686,-10 3686,-30 3706,-30 3706,-10 3686,-10"/>
<text text-anchor="start" x="3709.67" y="-15.4" font-family="Times-12" font-size="14.00"> &#160;Providers</text>
<polygon fill="#fb8072" stroke="transparent" points="3782,-10 3782,-30 3802,-30 3802,-10 3782,-10"/>
<text text-anchor="start" x="3805.73" y="-15.4" font-family="Times-12" font-size="14.00"> &#160;Exports</text>
<g id="clust1" class="cluster">
<title>cluster_AppModule</title>
<polygon fill="none" stroke="black" stroke-dasharray="1,5" points="8,-70 8,-412 2306,-412 2306,-70 8,-70"/>
</g>
<g id="clust2" class="cluster">
<title>cluster_AppModule_declarations</title>
<polygon fill="none" stroke="black" points="329,-222 329,-274 2298,-274 2298,-222 329,-222"/>
</g>
<g id="clust15" class="cluster">
<title>cluster_AppModule_imports</title>
<polygon fill="none" stroke="black" points="16,-78 16,-274 321,-274 321,-78 16,-78"/>
</g>
<g id="clust17" class="cluster">
<title>cluster_AppModule_bootstrap</title>
<polygon fill="none" stroke="black" points="864,-352 864,-404 988,-404 988,-352 864,-352"/>
</g>
<g id="clust25" class="cluster">
<title>cluster_LoggedModule</title>
<polygon fill="none" stroke="black" stroke-dasharray="1,5" points="2314,-146 2314,-214 6910,-214 6910,-146 2314,-146"/>
</g>
<g id="clust26" class="cluster">
<title>cluster_LoggedModule_declarations</title>
<polygon fill="none" stroke="black" points="2664,-154 2664,-206 6902,-206 6902,-154 2664,-154"/>
</g>
<g id="clust53" class="cluster">
<title>cluster_LoggedModule_imports</title>
<polygon fill="none" stroke="black" points="2492,-154 2492,-206 2656,-206 2656,-154 2492,-154"/>
</g>
<g id="clust56" class="cluster">
<title>cluster_LoggedModule_providers</title>
<polygon fill="none" stroke="black" points="2322,-154 2322,-206 2484,-206 2484,-154 2322,-154"/>
</g>
<g id="clust63" class="cluster">
<title>cluster_PipesModule</title>
<polygon fill="none" stroke="black" stroke-dasharray="1,5" points="6918,-70 6918,-282 7240,-282 7240,-70 6918,-70"/>
</g>
<g id="clust64" class="cluster">
<title>cluster_PipesModule_declarations</title>
<polygon fill="none" stroke="black" points="6930,-78 6930,-130 7229,-130 7229,-78 6930,-78"/>
</g>
<g id="clust68" class="cluster">
<title>cluster_PipesModule_exports</title>
<polygon fill="none" stroke="black" points="6926,-222 6926,-274 7232,-274 7232,-222 6926,-222"/>
</g>
<g id="clust71" class="cluster">
<title>cluster_SharedModule</title>
<polygon fill="none" stroke="black" stroke-dasharray="1,5" points="2314,-70 2314,-138 3851,-138 3851,-70 2314,-70"/>
</g>
<g id="clust72" class="cluster">
<title>cluster_SharedModule_declarations</title>
<polygon fill="none" stroke="black" points="2997,-78 2997,-130 3843,-130 3843,-78 2997,-78"/>
</g>
<g id="clust79" class="cluster">
<title>cluster_SharedModule_exports</title>
<polygon fill="none" stroke="black" points="2322,-78 2322,-130 2989,-130 2989,-78 2322,-78"/>
</g>
<!-- AppComponent -->
<g id="node1" class="node">
<title>AppComponent</title>
<polygon fill="#ffffb3" stroke="black" points="2289.94,-266 2184.06,-266 2184.06,-230 2289.94,-230 2289.94,-266"/>
<text text-anchor="middle" x="2237" y="-243.8" font-family="Times,serif" font-size="14.00">AppComponent</text>
</g>
<!-- AppModule -->
<g id="node13" class="node">
<title>AppModule</title>
<polygon fill="#8dd3c7" stroke="black" points="967.66,-331 964.66,-335 943.66,-335 940.66,-331 884.34,-331 884.34,-295 967.66,-295 967.66,-331"/>
<text text-anchor="middle" x="926" y="-308.8" font-family="Times,serif" font-size="14.00">AppModule</text>
</g>
<!-- AppComponent&#45;&gt;AppModule -->
<g id="edge1" class="edge">
<title>AppComponent&#45;&gt;AppModule</title>
<path fill="none" stroke="black" d="M2237,-266.32C2237,-289.66 2237,-327 2237,-327 2237,-327 977.77,-327 977.77,-327"/>
<polygon fill="black" stroke="black" points="977.77,-323.5 967.77,-327 977.77,-330.5 977.77,-323.5"/>
</g>
<!-- ClientCardMenuComponent -->
<g id="node2" class="node">
<title>ClientCardMenuComponent</title>
<polygon fill="#ffffb3" stroke="black" points="2166.93,-266 1991.07,-266 1991.07,-230 2166.93,-230 2166.93,-266"/>
<text text-anchor="middle" x="2079" y="-243.8" font-family="Times,serif" font-size="14.00">ClientCardMenuComponent</text>
</g>
<!-- ClientCardMenuComponent&#45;&gt;AppModule -->
<g id="edge2" class="edge">
<title>ClientCardMenuComponent&#45;&gt;AppModule</title>
<path fill="none" stroke="black" d="M2079,-266.29C2079,-288.21 2079,-322 2079,-322 2079,-322 977.72,-322 977.72,-322"/>
<polygon fill="black" stroke="black" points="977.72,-318.5 967.72,-322 977.72,-325.5 977.72,-318.5"/>
</g>
<!-- ClientMenuComponent -->
<g id="node3" class="node">
<title>ClientMenuComponent</title>
<polygon fill="#ffffb3" stroke="black" points="1973.21,-266 1824.79,-266 1824.79,-230 1973.21,-230 1973.21,-266"/>
<text text-anchor="middle" x="1899" y="-243.8" font-family="Times,serif" font-size="14.00">ClientMenuComponent</text>
</g>
<!-- ClientMenuComponent&#45;&gt;AppModule -->
<g id="edge3" class="edge">
<title>ClientMenuComponent&#45;&gt;AppModule</title>
<path fill="none" stroke="black" d="M1899,-266.03C1899,-286.77 1899,-318 1899,-318 1899,-318 977.81,-318 977.81,-318"/>
<polygon fill="black" stroke="black" points="977.81,-314.5 967.81,-318 977.81,-321.5 977.81,-314.5"/>
</g>
<!-- ClientMenuItemComponent -->
<g id="node4" class="node">
<title>ClientMenuItemComponent</title>
<polygon fill="#ffffb3" stroke="black" points="1806.87,-266 1633.13,-266 1633.13,-230 1806.87,-230 1806.87,-266"/>
<text text-anchor="middle" x="1720" y="-243.8" font-family="Times,serif" font-size="14.00">ClientMenuItemComponent</text>
</g>
<!-- ClientMenuItemComponent&#45;&gt;AppModule -->
<g id="edge4" class="edge">
<title>ClientMenuItemComponent&#45;&gt;AppModule</title>
<path fill="none" stroke="black" d="M1720,-266.11C1720,-285.34 1720,-313 1720,-313 1720,-313 977.85,-313 977.85,-313"/>
<polygon fill="black" stroke="black" points="977.85,-309.5 967.85,-313 977.85,-316.5 977.85,-309.5"/>
</g>
<!-- ClientMenuRowComponent -->
<g id="node5" class="node">
<title>ClientMenuRowComponent</title>
<polygon fill="#ffffb3" stroke="black" points="1615.16,-266 1440.84,-266 1440.84,-230 1615.16,-230 1615.16,-266"/>
<text text-anchor="middle" x="1528" y="-243.8" font-family="Times,serif" font-size="14.00">ClientMenuRowComponent</text>
</g>
<!-- ClientMenuRowComponent&#45;&gt;AppModule -->
<g id="edge5" class="edge">
<title>ClientMenuRowComponent&#45;&gt;AppModule</title>
<path fill="none" stroke="black" d="M1528,-266.3C1528,-284.27 1528,-309 1528,-309 1528,-309 977.85,-309 977.85,-309"/>
<polygon fill="black" stroke="black" points="977.85,-305.5 967.85,-309 977.85,-312.5 977.85,-305.5"/>
</g>
<!-- ConfirmEmailComponent -->
<g id="node6" class="node">
<title>ConfirmEmailComponent</title>
<polygon fill="#ffffb3" stroke="black" points="1423.21,-266 1260.79,-266 1260.79,-230 1423.21,-230 1423.21,-266"/>
<text text-anchor="middle" x="1342" y="-243.8" font-family="Times,serif" font-size="14.00">ConfirmEmailComponent</text>
</g>
<!-- ConfirmEmailComponent&#45;&gt;AppModule -->
<g id="edge6" class="edge">
<title>ConfirmEmailComponent&#45;&gt;AppModule</title>
<path fill="none" stroke="black" d="M1342,-266.03C1342,-282.4 1342,-304 1342,-304 1342,-304 977.79,-304 977.79,-304"/>
<polygon fill="black" stroke="black" points="977.79,-300.5 967.79,-304 977.79,-307.5 977.79,-300.5"/>
</g>
<!-- FullPdfViewerComponent -->
<g id="node7" class="node">
<title>FullPdfViewerComponent</title>
<polygon fill="#ffffb3" stroke="black" points="1243.03,-266 1078.97,-266 1078.97,-230 1243.03,-230 1243.03,-266"/>
<text text-anchor="middle" x="1161" y="-243.8" font-family="Times,serif" font-size="14.00">FullPdfViewerComponent</text>
</g>
<!-- FullPdfViewerComponent&#45;&gt;AppModule -->
<g id="edge7" class="edge">
<title>FullPdfViewerComponent&#45;&gt;AppModule</title>
<path fill="none" stroke="black" d="M1161,-266.19C1161,-281.18 1161,-300 1161,-300 1161,-300 977.74,-300 977.74,-300"/>
<polygon fill="black" stroke="black" points="977.74,-296.5 967.74,-300 977.74,-303.5 977.74,-296.5"/>
</g>
<!-- LoginComponent -->
<g id="node8" class="node">
<title>LoginComponent</title>
<polygon fill="#ffffb3" stroke="black" points="1060.28,-266 945.72,-266 945.72,-230 1060.28,-230 1060.28,-266"/>
<text text-anchor="middle" x="1003" y="-243.8" font-family="Times,serif" font-size="14.00">LoginComponent</text>
</g>
<!-- LoginComponent&#45;&gt;AppModule -->
<g id="edge8" class="edge">
<title>LoginComponent&#45;&gt;AppModule</title>
<path fill="none" stroke="black" d="M956.72,-266.11C956.72,-266.11 956.72,-284.99 956.72,-284.99"/>
<polygon fill="black" stroke="black" points="953.22,-284.99 956.72,-294.99 960.22,-284.99 953.22,-284.99"/>
</g>
<!-- QRGeneratorComponent -->
<g id="node9" class="node">
<title>QRGeneratorComponent</title>
<polygon fill="#ffffb3" stroke="black" points="927.24,-266 770.76,-266 770.76,-230 927.24,-230 927.24,-266"/>
<text text-anchor="middle" x="849" y="-243.8" font-family="Times,serif" font-size="14.00">QRGeneratorComponent</text>
</g>
<!-- QRGeneratorComponent&#45;&gt;AppModule -->
<g id="edge9" class="edge">
<title>QRGeneratorComponent&#45;&gt;AppModule</title>
<path fill="none" stroke="black" d="M905.77,-266.11C905.77,-266.11 905.77,-284.99 905.77,-284.99"/>
<polygon fill="black" stroke="black" points="902.27,-284.99 905.77,-294.99 909.27,-284.99 902.27,-284.99"/>
</g>
<!-- RecoverComponent -->
<g id="node10" class="node">
<title>RecoverComponent</title>
<polygon fill="#ffffb3" stroke="black" points="752.97,-266 625.03,-266 625.03,-230 752.97,-230 752.97,-266"/>
<text text-anchor="middle" x="689" y="-243.8" font-family="Times,serif" font-size="14.00">RecoverComponent</text>
</g>
<!-- RecoverComponent&#45;&gt;AppModule -->
<g id="edge10" class="edge">
<title>RecoverComponent&#45;&gt;AppModule</title>
<path fill="none" stroke="black" d="M689,-266.24C689,-281.57 689,-301 689,-301 689,-301 874.17,-301 874.17,-301"/>
<polygon fill="black" stroke="black" points="874.17,-304.5 884.17,-301 874.17,-297.5 874.17,-304.5"/>
</g>
<!-- SignUpComponent -->
<g id="node11" class="node">
<title>SignUpComponent</title>
<polygon fill="#ffffb3" stroke="black" points="607.11,-266 482.89,-266 482.89,-230 607.11,-230 607.11,-266"/>
<text text-anchor="middle" x="545" y="-243.8" font-family="Times,serif" font-size="14.00">SignUpComponent</text>
</g>
<!-- SignUpComponent&#45;&gt;AppModule -->
<g id="edge11" class="edge">
<title>SignUpComponent&#45;&gt;AppModule</title>
<path fill="none" stroke="black" d="M545,-266.02C545,-283.37 545,-307 545,-307 545,-307 874.14,-307 874.14,-307"/>
<polygon fill="black" stroke="black" points="874.14,-310.5 884.14,-307 874.14,-303.5 874.14,-310.5"/>
</g>
<!-- ckeditorComponent -->
<g id="node12" class="node">
<title>ckeditorComponent</title>
<polygon fill="#ffffb3" stroke="black" points="464.7,-266 337.3,-266 337.3,-230 464.7,-230 464.7,-266"/>
<text text-anchor="middle" x="401" y="-243.8" font-family="Times,serif" font-size="14.00">ckeditorComponent</text>
</g>
<!-- ckeditorComponent&#45;&gt;AppModule -->
<g id="edge12" class="edge">
<title>ckeditorComponent&#45;&gt;AppModule</title>
<path fill="none" stroke="black" d="M401,-266.11C401,-285.34 401,-313 401,-313 401,-313 873.92,-313 873.92,-313"/>
<polygon fill="black" stroke="black" points="873.92,-316.5 883.92,-313 873.92,-309.5 873.92,-316.5"/>
</g>
<!-- AppComponent  -->
<g id="node18" class="node">
<title>AppComponent </title>
<polygon fill="#80b1d3" stroke="black" points="980.44,-396 871.56,-396 871.56,-360 980.44,-360 980.44,-396"/>
<text text-anchor="middle" x="926" y="-373.8" font-family="Times,serif" font-size="14.00">AppComponent </text>
</g>
<!-- AppModule&#45;&gt;AppComponent  -->
<g id="edge17" class="edge">
<title>AppModule&#45;&gt;AppComponent </title>
<path fill="none" stroke="black" stroke-dasharray="1,5" d="M926,-331.11C926,-331.11 926,-349.99 926,-349.99"/>
<polygon fill="black" stroke="black" points="922.5,-349.99 926,-359.99 929.5,-349.99 922.5,-349.99"/>
</g>
<!-- AppRoutingModule -->
<g id="node14" class="node">
<title>AppRoutingModule</title>
<polygon fill="#8dd3c7" stroke="black" points="152.27,-122 149.27,-126 128.27,-126 125.27,-122 23.73,-122 23.73,-86 152.27,-86 152.27,-122"/>
<text text-anchor="middle" x="88" y="-99.8" font-family="Times,serif" font-size="14.00">AppRoutingModule</text>
</g>
<!-- AppRoutingModule&#45;&gt;AppModule -->
<g id="edge13" class="edge">
<title>AppRoutingModule&#45;&gt;AppModule</title>
<path fill="none" stroke="black" d="M88,-122.09C88,-174.87 88,-325 88,-325 88,-325 874.16,-325 874.16,-325"/>
<polygon fill="black" stroke="black" points="874.16,-328.5 884.16,-325 874.16,-321.5 874.16,-328.5"/>
</g>
<!-- LoggedModule -->
<g id="node15" class="node">
<title>LoggedModule</title>
<polygon fill="#8dd3c7" stroke="black" points="313.32,-266 310.32,-270 289.32,-270 286.32,-266 210.68,-266 210.68,-230 313.32,-230 313.32,-266"/>
<text text-anchor="middle" x="262" y="-243.8" font-family="Times,serif" font-size="14.00">LoggedModule</text>
</g>
<!-- LoggedModule&#45;&gt;AppModule -->
<g id="edge14" class="edge">
<title>LoggedModule&#45;&gt;AppModule</title>
<path fill="none" stroke="black" d="M306.34,-266.28C306.34,-287.32 306.34,-319 306.34,-319 306.34,-319 873.9,-319 873.9,-319"/>
<polygon fill="black" stroke="black" points="873.9,-322.5 883.9,-319 873.9,-315.5 873.9,-322.5"/>
</g>
<!-- SharedModule -->
<g id="node16" class="node">
<title>SharedModule</title>
<polygon fill="#8dd3c7" stroke="black" points="313.42,-198 310.42,-202 289.42,-202 286.42,-198 214.58,-198 214.58,-162 313.42,-162 313.42,-198"/>
<text text-anchor="middle" x="264" y="-175.8" font-family="Times,serif" font-size="14.00">SharedModule</text>
</g>
<!-- SharedModule&#45;&gt;AppModule -->
<g id="edge15" class="edge">
<title>SharedModule&#45;&gt;AppModule</title>
<path fill="none" stroke="black" d="M313.23,-189C467.83,-189 933.45,-189 933.45,-189 933.45,-189 933.45,-284.97 933.45,-284.97"/>
<polygon fill="black" stroke="black" points="929.95,-284.97 933.45,-294.97 936.95,-284.97 929.95,-284.97"/>
</g>
<!-- SharedModule&#45;&gt;LoggedModule -->
<g id="edge45" class="edge">
<title>SharedModule&#45;&gt;LoggedModule</title>
<path fill="none" stroke="black" d="M220.94,-198.22C220.94,-198.22 220.94,-219.73 220.94,-219.73"/>
<polygon fill="black" stroke="black" points="217.44,-219.73 220.94,-229.73 224.44,-219.73 217.44,-219.73"/>
</g>
<!-- CheckoutComponent  -->
<g id="node57" class="node">
<title>CheckoutComponent </title>
<polygon fill="#fb8072" stroke="black" points="2676.49,-122 2537.51,-122 2537.51,-86 2676.49,-86 2676.49,-122"/>
<text text-anchor="middle" x="2607" y="-99.8" font-family="Times,serif" font-size="14.00">CheckoutComponent </text>
</g>
<!-- SharedModule&#45;&gt;CheckoutComponent  -->
<g id="edge59" class="edge">
<title>SharedModule&#45;&gt;CheckoutComponent </title>
<path fill="none" stroke="black" stroke-dasharray="5,2" d="M277.42,-161.72C277.42,-146.05 277.42,-126 277.42,-126 277.42,-126 2592.74,-126 2592.74,-126 2592.74,-126 2592.74,-125.62 2592.74,-125.62"/>
<polygon fill="black" stroke="black" points="2596.24,-132.17 2592.74,-122.17 2589.24,-132.17 2596.24,-132.17"/>
</g>
<!-- PlatformLanguageComponent  -->
<g id="node58" class="node">
<title>PlatformLanguageComponent </title>
<polygon fill="#fb8072" stroke="black" points="2519.52,-122 2330.48,-122 2330.48,-86 2519.52,-86 2519.52,-122"/>
<text text-anchor="middle" x="2425" y="-99.8" font-family="Times,serif" font-size="14.00">PlatformLanguageComponent </text>
</g>
<!-- SharedModule&#45;&gt;PlatformLanguageComponent  -->
<g id="edge60" class="edge">
<title>SharedModule&#45;&gt;PlatformLanguageComponent </title>
<path fill="none" stroke="black" stroke-dasharray="5,2" d="M313.46,-171C352.7,-171 401,-171 401,-171 401,-171 401,-98 401,-98 401,-98 2320.43,-98 2320.43,-98"/>
<polygon fill="black" stroke="black" points="2320.43,-101.5 2330.43,-98 2320.43,-94.5 2320.43,-101.5"/>
</g>
<!-- PopupinfoComponent  -->
<g id="node59" class="node">
<title>PopupinfoComponent </title>
<polygon fill="#fb8072" stroke="black" points="2980.67,-122 2837.33,-122 2837.33,-86 2980.67,-86 2980.67,-122"/>
<text text-anchor="middle" x="2909" y="-99.8" font-family="Times,serif" font-size="14.00">PopupinfoComponent </text>
</g>
<!-- SharedModule&#45;&gt;PopupinfoComponent  -->
<g id="edge61" class="edge">
<title>SharedModule&#45;&gt;PopupinfoComponent </title>
<path fill="none" stroke="black" stroke-dasharray="5,2" d="M295.32,-161.82C295.32,-148.96 295.32,-134 295.32,-134 295.32,-134 2898.65,-134 2898.65,-134 2898.65,-134 2898.65,-132.14 2898.65,-132.14"/>
<polygon fill="black" stroke="black" points="2902.15,-132.14 2898.65,-122.14 2895.15,-132.14 2902.15,-132.14"/>
</g>
<!-- PricingComponent  -->
<g id="node60" class="node">
<title>PricingComponent </title>
<polygon fill="#fb8072" stroke="black" points="2819.77,-122 2694.23,-122 2694.23,-86 2819.77,-86 2819.77,-122"/>
<text text-anchor="middle" x="2757" y="-99.8" font-family="Times,serif" font-size="14.00">PricingComponent </text>
</g>
<!-- SharedModule&#45;&gt;PricingComponent  -->
<g id="edge62" class="edge">
<title>SharedModule&#45;&gt;PricingComponent </title>
<path fill="none" stroke="black" stroke-dasharray="5,2" d="M286.37,-161.95C286.37,-147.63 286.37,-130 286.37,-130 286.37,-130 2750.04,-130 2750.04,-130 2750.04,-130 2750.04,-129.21 2750.04,-129.21"/>
<polygon fill="black" stroke="black" points="2753.54,-132.06 2750.04,-122.06 2746.54,-132.06 2753.54,-132.06"/>
</g>
<!-- TranslocoRootModule -->
<g id="node17" class="node">
<title>TranslocoRootModule</title>
<polygon fill="#8dd3c7" stroke="black" points="313.25,-122 310.25,-126 289.25,-126 286.25,-122 170.75,-122 170.75,-86 313.25,-86 313.25,-122"/>
<text text-anchor="middle" x="242" y="-99.8" font-family="Times,serif" font-size="14.00">TranslocoRootModule</text>
</g>
<!-- TranslocoRootModule&#45;&gt;AppModule -->
<g id="edge16" class="edge">
<title>TranslocoRootModule&#45;&gt;AppModule</title>
<path fill="none" stroke="black" d="M313.37,-110C491.15,-110 939.53,-110 939.53,-110 939.53,-110 939.53,-284.99 939.53,-284.99"/>
<polygon fill="black" stroke="black" points="936.03,-284.99 939.53,-294.99 943.03,-284.99 936.03,-284.99"/>
</g>
<!-- TranslocoRootModule&#45;&gt;LoggedModule -->
<g id="edge46" class="edge">
<title>TranslocoRootModule&#45;&gt;LoggedModule</title>
<path fill="none" stroke="black" d="M190.73,-122.24C190.73,-160.99 190.73,-248 190.73,-248 190.73,-248 200.58,-248 200.58,-248"/>
<polygon fill="black" stroke="black" points="200.58,-251.5 210.58,-248 200.58,-244.5 200.58,-251.5"/>
</g>
<!-- TranslocoRootModule&#45;&gt;SharedModule -->
<g id="edge58" class="edge">
<title>TranslocoRootModule&#45;&gt;SharedModule</title>
<path fill="none" stroke="black" d="M223.74,-122.01C223.74,-122.01 223.74,-151.85 223.74,-151.85"/>
<polygon fill="black" stroke="black" points="220.24,-151.85 223.74,-161.85 227.24,-151.85 220.24,-151.85"/>
</g>
<!-- AdminComponent -->
<g id="node19" class="node">
<title>AdminComponent</title>
<polygon fill="#ffffb3" stroke="black" points="4581.22,-198 4460.78,-198 4460.78,-162 4581.22,-162 4581.22,-198"/>
<text text-anchor="middle" x="4521" y="-175.8" font-family="Times,serif" font-size="14.00">AdminComponent</text>
</g>
<!-- AdminComponent&#45;&gt;LoggedModule -->
<g id="edge18" class="edge">
<title>AdminComponent&#45;&gt;LoggedModule</title>
<path fill="none" stroke="black" d="M4521,-198.18C4521,-211.04 4521,-226 4521,-226 4521,-226 300.86,-226 300.86,-226 300.86,-226 300.86,-226.38 300.86,-226.38"/>
<polygon fill="black" stroke="black" points="297.36,-219.83 300.86,-229.83 304.36,-219.83 297.36,-219.83"/>
</g>
<!-- ConfigurationComponent -->
<g id="node20" class="node">
<title>ConfigurationComponent</title>
<polygon fill="#ffffb3" stroke="black" points="4442.88,-198 4283.12,-198 4283.12,-162 4442.88,-162 4442.88,-198"/>
<text text-anchor="middle" x="4363" y="-175.8" font-family="Times,serif" font-size="14.00">ConfigurationComponent</text>
</g>
<!-- ConfigurationComponent&#45;&gt;LoggedModule -->
<g id="edge19" class="edge">
<title>ConfigurationComponent&#45;&gt;LoggedModule</title>
<path fill="none" stroke="black" d="M4363,-198.15C4363,-210.27 4363,-224 4363,-224 4363,-224 294.71,-224 294.71,-224 294.71,-224 294.71,-224.58 294.71,-224.58"/>
<polygon fill="black" stroke="black" points="291.21,-219.81 294.71,-229.81 298.21,-219.81 291.21,-219.81"/>
</g>
<!-- DashboardComponent -->
<g id="node21" class="node">
<title>DashboardComponent</title>
<polygon fill="#ffffb3" stroke="black" points="4264.97,-198 4123.03,-198 4123.03,-162 4264.97,-162 4264.97,-198"/>
<text text-anchor="middle" x="4194" y="-175.8" font-family="Times,serif" font-size="14.00">DashboardComponent</text>
</g>
<!-- DashboardComponent&#45;&gt;LoggedModule -->
<g id="edge20" class="edge">
<title>DashboardComponent&#45;&gt;LoggedModule</title>
<path fill="none" stroke="black" d="M4194,-198.06C4194,-209.44 4194,-222 4194,-222 4194,-222 288.57,-222 288.57,-222 288.57,-222 288.57,-222.79 288.57,-222.79"/>
<polygon fill="black" stroke="black" points="285.07,-219.94 288.57,-229.94 292.07,-219.94 285.07,-219.94"/>
</g>
<!-- DaySelectorComponent -->
<g id="node22" class="node">
<title>DaySelectorComponent</title>
<polygon fill="#ffffb3" stroke="black" points="4105.02,-198 3954.98,-198 3954.98,-162 4105.02,-162 4105.02,-198"/>
<text text-anchor="middle" x="4030" y="-175.8" font-family="Times,serif" font-size="14.00">DaySelectorComponent</text>
</g>
<!-- DaySelectorComponent&#45;&gt;LoggedModule -->
<g id="edge21" class="edge">
<title>DaySelectorComponent&#45;&gt;LoggedModule</title>
<path fill="none" stroke="black" d="M4030,-198.13C4030,-208.71 4030,-220 4030,-220 4030,-220 282.42,-220 282.42,-220 282.42,-220 282.42,-220.98 282.42,-220.98"/>
<polygon fill="black" stroke="black" points="278.92,-219.79 282.42,-229.79 285.92,-219.79 278.92,-219.79"/>
</g>
<!-- DishCreationComponent -->
<g id="node23" class="node">
<title>DishCreationComponent</title>
<polygon fill="#ffffb3" stroke="black" points="3936.98,-198 3781.02,-198 3781.02,-162 3936.98,-162 3936.98,-198"/>
<text text-anchor="middle" x="3859" y="-175.8" font-family="Times,serif" font-size="14.00">DishCreationComponent</text>
</g>
<!-- DishCreationComponent&#45;&gt;LoggedModule -->
<g id="edge22" class="edge">
<title>DishCreationComponent&#45;&gt;LoggedModule</title>
<path fill="none" stroke="black" d="M3859,-198.11C3859,-207.9 3859,-218 3859,-218 3859,-218 276.27,-218 276.27,-218 276.27,-218 276.27,-219.86 276.27,-219.86"/>
<polygon fill="black" stroke="black" points="272.77,-219.86 276.27,-229.86 279.77,-219.86 272.77,-219.86"/>
</g>
<!-- DishItemComponent -->
<g id="node24" class="node">
<title>DishItemComponent</title>
<polygon fill="#ffffb3" stroke="black" points="3762.93,-198 3629.07,-198 3629.07,-162 3762.93,-162 3762.93,-198"/>
<text text-anchor="middle" x="3696" y="-175.8" font-family="Times,serif" font-size="14.00">DishItemComponent</text>
</g>
<!-- DishItemComponent&#45;&gt;LoggedModule -->
<g id="edge23" class="edge">
<title>DishItemComponent&#45;&gt;LoggedModule</title>
<path fill="none" stroke="black" d="M3696,-198.42C3696,-207.28 3696,-216 3696,-216 3696,-216 270.12,-216 270.12,-216 270.12,-216 270.12,-219.76 270.12,-219.76"/>
<polygon fill="black" stroke="black" points="266.62,-219.76 270.12,-229.76 273.62,-219.76 266.62,-219.76"/>
</g>
<!-- DishListComponent -->
<g id="node25" class="node">
<title>DishListComponent</title>
<polygon fill="#ffffb3" stroke="black" points="3611.55,-198 3482.45,-198 3482.45,-162 3611.55,-162 3611.55,-198"/>
<text text-anchor="middle" x="3547" y="-175.8" font-family="Times,serif" font-size="14.00">DishListComponent</text>
</g>
<!-- DishListComponent&#45;&gt;LoggedModule -->
<g id="edge24" class="edge">
<title>DishListComponent&#45;&gt;LoggedModule</title>
<path fill="none" stroke="black" d="M3547,-198.04C3547,-205.75 3547,-213 3547,-213 3547,-213 263.97,-213 263.97,-213 263.97,-213 263.97,-219.68 263.97,-219.68"/>
<polygon fill="black" stroke="black" points="260.47,-219.68 263.97,-229.68 267.47,-219.68 260.47,-219.68"/>
</g>
<!-- ManageSubComponent -->
<g id="node26" class="node">
<title>ManageSubComponent</title>
<polygon fill="#ffffb3" stroke="black" points="3464.2,-198 3315.8,-198 3315.8,-162 3464.2,-162 3464.2,-198"/>
<text text-anchor="middle" x="3390" y="-175.8" font-family="Times,serif" font-size="14.00">ManageSubComponent</text>
</g>
<!-- ManageSubComponent&#45;&gt;LoggedModule -->
<g id="edge25" class="edge">
<title>ManageSubComponent&#45;&gt;LoggedModule</title>
<path fill="none" stroke="black" d="M3390,-198.03C3390,-204.85 3390,-211 3390,-211 3390,-211 257.83,-211 257.83,-211 257.83,-211 257.83,-219.93 257.83,-219.93"/>
<polygon fill="black" stroke="black" points="254.33,-219.93 257.83,-229.93 261.33,-219.93 254.33,-219.93"/>
</g>
<!-- MenuCreationComponent -->
<g id="node27" class="node">
<title>MenuCreationComponent</title>
<polygon fill="#ffffb3" stroke="black" points="3298.2,-198 3135.8,-198 3135.8,-162 3298.2,-162 3298.2,-198"/>
<text text-anchor="middle" x="3217" y="-175.8" font-family="Times,serif" font-size="14.00">MenuCreationComponent</text>
</g>
<!-- MenuCreationComponent&#45;&gt;LoggedModule -->
<g id="edge26" class="edge">
<title>MenuCreationComponent&#45;&gt;LoggedModule</title>
<path fill="none" stroke="black" d="M3217,-198.2C3217,-204.03 3217,-209 3217,-209 3217,-209 251.68,-209 251.68,-209 251.68,-209 251.68,-219.87 251.68,-219.87"/>
<polygon fill="black" stroke="black" points="248.18,-219.87 251.68,-229.87 255.18,-219.87 248.18,-219.87"/>
</g>
<!-- MenuItemComponent -->
<g id="node28" class="node">
<title>MenuItemComponent</title>
<polygon fill="#ffffb3" stroke="black" points="3117.65,-198 2978.35,-198 2978.35,-162 3117.65,-162 3117.65,-198"/>
<text text-anchor="middle" x="3048" y="-175.8" font-family="Times,serif" font-size="14.00">MenuItemComponent</text>
</g>
<!-- MenuItemComponent&#45;&gt;LoggedModule -->
<g id="edge27" class="edge">
<title>MenuItemComponent&#45;&gt;LoggedModule</title>
<path fill="none" stroke="black" d="M3048,-198.16C3048,-203.04 3048,-207 3048,-207 3048,-207 245.53,-207 245.53,-207 245.53,-207 245.53,-219.9 245.53,-219.9"/>
<polygon fill="black" stroke="black" points="242.03,-219.9 245.53,-229.9 249.03,-219.9 242.03,-219.9"/>
</g>
<!-- MenuListComponent -->
<g id="node29" class="node">
<title>MenuListComponent</title>
<polygon fill="#ffffb3" stroke="black" points="2959.77,-198 2824.23,-198 2824.23,-162 2959.77,-162 2959.77,-198"/>
<text text-anchor="middle" x="2892" y="-175.8" font-family="Times,serif" font-size="14.00">MenuListComponent</text>
</g>
<!-- MenuListComponent&#45;&gt;LoggedModule -->
<g id="edge28" class="edge">
<title>MenuListComponent&#45;&gt;LoggedModule</title>
<path fill="none" stroke="black" d="M2892,-198.17C2892,-202.05 2892,-205 2892,-205 2892,-205 239.38,-205 239.38,-205 239.38,-205 239.38,-219.51 239.38,-219.51"/>
<polygon fill="black" stroke="black" points="235.88,-219.51 239.38,-229.51 242.88,-219.51 235.88,-219.51"/>
</g>
<!-- MenuPdfComponent -->
<g id="node30" class="node">
<title>MenuPdfComponent</title>
<polygon fill="#ffffb3" stroke="black" points="2805.94,-198 2672.06,-198 2672.06,-162 2805.94,-162 2805.94,-198"/>
<text text-anchor="middle" x="2739" y="-175.8" font-family="Times,serif" font-size="14.00">MenuPdfComponent</text>
</g>
<!-- MenuPdfComponent&#45;&gt;LoggedModule -->
<g id="edge29" class="edge">
<title>MenuPdfComponent&#45;&gt;LoggedModule</title>
<path fill="none" stroke="black" d="M2739,-198.12C2739,-200.97 2739,-203 2739,-203 2739,-203 233.23,-203 233.23,-203 233.23,-203 233.23,-219.96 233.23,-219.96"/>
<polygon fill="black" stroke="black" points="229.73,-219.96 233.23,-229.96 236.73,-219.96 229.73,-219.96"/>
</g>
<!-- QrDownloadComponent -->
<g id="node31" class="node">
<title>QrDownloadComponent</title>
<polygon fill="#ffffb3" stroke="black" points="6894.42,-198 6739.58,-198 6739.58,-162 6894.42,-162 6894.42,-198"/>
<text text-anchor="middle" x="6817" y="-175.8" font-family="Times,serif" font-size="14.00">QrDownloadComponent</text>
</g>
<!-- QrDownloadComponent&#45;&gt;LoggedModule -->
<g id="edge30" class="edge">
<title>QrDownloadComponent&#45;&gt;LoggedModule</title>
<path fill="none" stroke="black" d="M6817,-198.16C6817,-230.1 6817,-293 6817,-293 6817,-293 217.66,-293 217.66,-293 217.66,-293 217.66,-276.04 217.66,-276.04"/>
<polygon fill="black" stroke="black" points="221.16,-276.04 217.66,-266.04 214.16,-276.04 221.16,-276.04"/>
</g>
<!-- RestaurantComponent -->
<g id="node32" class="node">
<title>RestaurantComponent</title>
<polygon fill="#ffffb3" stroke="black" points="6721.7,-198 6580.3,-198 6580.3,-162 6721.7,-162 6721.7,-198"/>
<text text-anchor="middle" x="6651" y="-175.8" font-family="Times,serif" font-size="14.00">RestaurantComponent</text>
</g>
<!-- RestaurantComponent&#45;&gt;LoggedModule -->
<g id="edge31" class="edge">
<title>RestaurantComponent&#45;&gt;LoggedModule</title>
<path fill="none" stroke="black" d="M6651,-198.33C6651,-229.86 6651,-291 6651,-291 6651,-291 224.48,-291 224.48,-291 224.48,-291 224.48,-276.49 224.48,-276.49"/>
<polygon fill="black" stroke="black" points="227.98,-276.49 224.48,-266.49 220.98,-276.49 227.98,-276.49"/>
</g>
<!-- RestaurantsComponent -->
<g id="node33" class="node">
<title>RestaurantsComponent</title>
<polygon fill="#ffffb3" stroke="black" points="6562.14,-198 6415.86,-198 6415.86,-162 6562.14,-162 6562.14,-198"/>
<text text-anchor="middle" x="6489" y="-175.8" font-family="Times,serif" font-size="14.00">RestaurantsComponent</text>
</g>
<!-- RestaurantsComponent&#45;&gt;LoggedModule -->
<g id="edge32" class="edge">
<title>RestaurantsComponent&#45;&gt;LoggedModule</title>
<path fill="none" stroke="black" d="M6489,-198.49C6489,-229.59 6489,-289 6489,-289 6489,-289 231.3,-289 231.3,-289 231.3,-289 231.3,-276.1 231.3,-276.1"/>
<polygon fill="black" stroke="black" points="234.8,-276.1 231.3,-266.1 227.8,-276.1 234.8,-276.1"/>
</g>
<!-- ScheduleSelectorComponent -->
<g id="node34" class="node">
<title>ScheduleSelectorComponent</title>
<polygon fill="#ffffb3" stroke="black" points="6397.02,-198 6218.98,-198 6218.98,-162 6397.02,-162 6397.02,-198"/>
<text text-anchor="middle" x="6308" y="-175.8" font-family="Times,serif" font-size="14.00">ScheduleSelectorComponent</text>
</g>
<!-- ScheduleSelectorComponent&#45;&gt;LoggedModule -->
<g id="edge33" class="edge">
<title>ScheduleSelectorComponent&#45;&gt;LoggedModule</title>
<path fill="none" stroke="black" d="M6308,-198.15C6308,-228.68 6308,-287 6308,-287 6308,-287 238.13,-287 238.13,-287 238.13,-287 238.13,-276.13 238.13,-276.13"/>
<polygon fill="black" stroke="black" points="241.63,-276.13 238.13,-266.13 234.63,-276.13 241.63,-276.13"/>
</g>
<!-- SeasoningCreationComponent -->
<g id="node35" class="node">
<title>SeasoningCreationComponent</title>
<polygon fill="#ffffb3" stroke="black" points="6200.59,-198 6013.41,-198 6013.41,-162 6200.59,-162 6200.59,-198"/>
<text text-anchor="middle" x="6107" y="-175.8" font-family="Times,serif" font-size="14.00">SeasoningCreationComponent</text>
</g>
<!-- SeasoningCreationComponent&#45;&gt;LoggedModule -->
<g id="edge34" class="edge">
<title>SeasoningCreationComponent&#45;&gt;LoggedModule</title>
<path fill="none" stroke="black" d="M6107,-198.29C6107,-228.37 6107,-285 6107,-285 6107,-285 244.95,-285 244.95,-285 244.95,-285 244.95,-276.07 244.95,-276.07"/>
<polygon fill="black" stroke="black" points="248.45,-276.07 244.95,-266.07 241.45,-276.07 248.45,-276.07"/>
</g>
<!-- SeasoningItemComponent -->
<g id="node36" class="node">
<title>SeasoningItemComponent</title>
<polygon fill="#ffffb3" stroke="black" points="5995.04,-198 5830.96,-198 5830.96,-162 5995.04,-162 5995.04,-198"/>
<text text-anchor="middle" x="5913" y="-175.8" font-family="Times,serif" font-size="14.00">SeasoningItemComponent</text>
</g>
<!-- SeasoningItemComponent&#45;&gt;LoggedModule -->
<g id="edge35" class="edge">
<title>SeasoningItemComponent&#45;&gt;LoggedModule</title>
<path fill="none" stroke="black" d="M5913,-198.41C5913,-228.04 5913,-283 5913,-283 5913,-283 251.77,-283 251.77,-283 251.77,-283 251.77,-276.32 251.77,-276.32"/>
<polygon fill="black" stroke="black" points="255.27,-276.32 251.77,-266.32 248.27,-276.32 255.27,-276.32"/>
</g>
<!-- SeasoningListComponent -->
<g id="node37" class="node">
<title>SeasoningListComponent</title>
<polygon fill="#ffffb3" stroke="black" points="5812.16,-198 5651.84,-198 5651.84,-162 5812.16,-162 5812.16,-198"/>
<text text-anchor="middle" x="5732" y="-175.8" font-family="Times,serif" font-size="14.00">SeasoningListComponent</text>
</g>
<!-- SeasoningListComponent&#45;&gt;LoggedModule -->
<g id="edge36" class="edge">
<title>SeasoningListComponent&#45;&gt;LoggedModule</title>
<path fill="none" stroke="black" d="M5732,-198.06C5732,-227.11 5732,-281 5732,-281 5732,-281 258.59,-281 258.59,-281 258.59,-281 258.59,-276.04 258.59,-276.04"/>
<polygon fill="black" stroke="black" points="262.09,-276.04 258.59,-266.04 255.09,-276.04 262.09,-276.04"/>
</g>
<!-- SideNavComponent -->
<g id="node38" class="node">
<title>SideNavComponent</title>
<polygon fill="#ffffb3" stroke="black" points="5633.54,-198 5504.46,-198 5504.46,-162 5633.54,-162 5633.54,-198"/>
<text text-anchor="middle" x="5569" y="-175.8" font-family="Times,serif" font-size="14.00">SideNavComponent</text>
</g>
<!-- SideNavComponent&#45;&gt;LoggedModule -->
<g id="edge37" class="edge">
<title>SideNavComponent&#45;&gt;LoggedModule</title>
<path fill="none" stroke="black" d="M5569,-198.16C5569,-226.74 5569,-279 5569,-279 5569,-279 265.41,-279 265.41,-279 265.41,-279 265.41,-276.03 265.41,-276.03"/>
<polygon fill="black" stroke="black" points="268.91,-276.03 265.41,-266.03 261.91,-276.03 268.91,-276.03"/>
</g>
<!-- SubscriptionComponent -->
<g id="node39" class="node">
<title>SubscriptionComponent</title>
<polygon fill="#ffffb3" stroke="black" points="5486.11,-198 5333.89,-198 5333.89,-162 5486.11,-162 5486.11,-198"/>
<text text-anchor="middle" x="5410" y="-175.8" font-family="Times,serif" font-size="14.00">SubscriptionComponent</text>
</g>
<!-- SubscriptionComponent&#45;&gt;LoggedModule -->
<g id="edge38" class="edge">
<title>SubscriptionComponent&#45;&gt;LoggedModule</title>
<path fill="none" stroke="black" d="M5410,-198.24C5410,-226.34 5410,-277 5410,-277 5410,-277 272.23,-277 272.23,-277 272.23,-277 272.23,-275.92 272.23,-275.92"/>
<polygon fill="black" stroke="black" points="275.73,-276.2 272.23,-266.2 268.73,-276.2 275.73,-276.2"/>
</g>
<!-- TConfigComponent -->
<g id="node40" class="node">
<title>TConfigComponent</title>
<polygon fill="#ffffb3" stroke="black" points="5316.27,-198 5187.73,-198 5187.73,-162 5316.27,-162 5316.27,-198"/>
<text text-anchor="middle" x="5252" y="-175.8" font-family="Times,serif" font-size="14.00">TConfigComponent</text>
</g>
<!-- TConfigComponent&#45;&gt;LoggedModule -->
<g id="edge39" class="edge">
<title>TConfigComponent&#45;&gt;LoggedModule</title>
<path fill="none" stroke="black" d="M5252,-198.32C5252,-225.92 5252,-275 5252,-275 5252,-275 279.05,-275 279.05,-275 279.05,-275 279.05,-274.12 279.05,-274.12"/>
<polygon fill="black" stroke="black" points="282.55,-276.16 279.05,-266.16 275.55,-276.16 282.55,-276.16"/>
</g>
<!-- TItemDishComponent -->
<g id="node41" class="node">
<title>TItemDishComponent</title>
<polygon fill="#ffffb3" stroke="black" points="5169.98,-198 5028.02,-198 5028.02,-162 5169.98,-162 5169.98,-198"/>
<text text-anchor="middle" x="5099" y="-175.8" font-family="Times,serif" font-size="14.00">TItemDishComponent</text>
</g>
<!-- TItemDishComponent&#45;&gt;LoggedModule -->
<g id="edge40" class="edge">
<title>TItemDishComponent&#45;&gt;LoggedModule</title>
<path fill="none" stroke="black" d="M5099,-198.37C5099,-225.48 5099,-273 5099,-273 5099,-273 285.87,-273 285.87,-273 285.87,-273 285.87,-272.32 285.87,-272.32"/>
<polygon fill="black" stroke="black" points="289.37,-276.17 285.87,-266.17 282.37,-276.17 289.37,-276.17"/>
</g>
<!-- TItemStringComponent -->
<g id="node42" class="node">
<title>TItemStringComponent</title>
<polygon fill="#ffffb3" stroke="black" points="5009.77,-198 4860.23,-198 4860.23,-162 5009.77,-162 5009.77,-198"/>
<text text-anchor="middle" x="4935" y="-175.8" font-family="Times,serif" font-size="14.00">TItemStringComponent</text>
</g>
<!-- TItemStringComponent&#45;&gt;LoggedModule -->
<g id="edge41" class="edge">
<title>TItemStringComponent&#45;&gt;LoggedModule</title>
<path fill="none" stroke="black" d="M4935,-198.42C4935,-225.01 4935,-271 4935,-271 4935,-271 292.7,-271 292.7,-271 292.7,-271 292.7,-270.51 292.7,-270.51"/>
<polygon fill="black" stroke="black" points="296.2,-276.12 292.7,-266.12 289.2,-276.12 296.2,-276.12"/>
</g>
<!-- TListComponent -->
<g id="node43" class="node">
<title>TListComponent</title>
<polygon fill="#ffffb3" stroke="black" points="4841.66,-198 4730.34,-198 4730.34,-162 4841.66,-162 4841.66,-198"/>
<text text-anchor="middle" x="4786" y="-175.8" font-family="Times,serif" font-size="14.00">TListComponent</text>
</g>
<!-- TListComponent&#45;&gt;LoggedModule -->
<g id="edge42" class="edge">
<title>TListComponent&#45;&gt;LoggedModule</title>
<path fill="none" stroke="black" d="M4786,-198.01C4786,-224.02 4786,-269 4786,-269 4786,-269 299.52,-269 299.52,-269 299.52,-269 299.52,-268.71 299.52,-268.71"/>
<polygon fill="black" stroke="black" points="303.02,-276.08 299.52,-266.08 296.02,-276.08 303.02,-276.08"/>
</g>
<!-- UsersComponent -->
<g id="node44" class="node">
<title>UsersComponent</title>
<polygon fill="#ffffb3" stroke="black" points="4712.7,-198 4599.3,-198 4599.3,-162 4712.7,-162 4712.7,-198"/>
<text text-anchor="middle" x="4656" y="-175.8" font-family="Times,serif" font-size="14.00">UsersComponent</text>
</g>
<!-- UsersComponent&#45;&gt;LoggedModule -->
<g id="edge43" class="edge">
<title>UsersComponent&#45;&gt;LoggedModule</title>
<path fill="none" stroke="black" d="M4656,-198.15C4656,-211.74 4656,-228 4656,-228 4656,-228 307.01,-228 307.01,-228 307.01,-228 307.01,-228.18 307.01,-228.18"/>
<polygon fill="black" stroke="black" points="303.51,-219.85 307.01,-229.85 310.51,-219.85 303.51,-219.85"/>
</g>
<!-- LoggedRoutingModule -->
<g id="node45" class="node">
<title>LoggedRoutingModule</title>
<polygon fill="#8dd3c7" stroke="black" points="2647.94,-198 2644.94,-202 2623.94,-202 2620.94,-198 2500.06,-198 2500.06,-162 2647.94,-162 2647.94,-198"/>
<text text-anchor="middle" x="2574" y="-175.8" font-family="Times,serif" font-size="14.00">LoggedRoutingModule</text>
</g>
<!-- LoggedRoutingModule&#45;&gt;LoggedModule -->
<g id="edge44" class="edge">
<title>LoggedRoutingModule&#45;&gt;LoggedModule</title>
<path fill="none" stroke="black" d="M2574,-198.08C2574,-199.85 2574,-201 2574,-201 2574,-201 227.09,-201 227.09,-201 227.09,-201 227.09,-219.96 227.09,-219.96"/>
<polygon fill="black" stroke="black" points="223.59,-219.96 227.09,-229.96 230.59,-219.96 223.59,-219.96"/>
</g>
<!-- LoggedRoutingModule&#45;&gt;SharedModule -->
<g id="edge57" class="edge">
<title>LoggedRoutingModule&#45;&gt;SharedModule</title>
<path fill="none" stroke="black" d="M2509.9,-161.83C2509.9,-159.55 2509.9,-158 2509.9,-158 2509.9,-158 304.26,-158 304.26,-158 304.26,-158 304.26,-158.38 304.26,-158.38"/>
<polygon fill="black" stroke="black" points="300.76,-151.83 304.26,-161.83 307.76,-151.83 300.76,-151.83"/>
</g>
<!-- AuthInterceptor -->
<g id="node46" class="node">
<title>AuthInterceptor</title>
<ellipse fill="#fdb462" stroke="black" cx="2403" cy="-180" rx="72.91" ry="18"/>
<text text-anchor="middle" x="2403" y="-175.8" font-family="Times,serif" font-size="14.00">AuthInterceptor</text>
</g>
<!-- AuthInterceptor&#45;&gt;LoggedModule -->
<g id="edge47" class="edge">
<title>AuthInterceptor&#45;&gt;LoggedModule</title>
<path fill="none" stroke="black" d="M2330.27,-180C1962.55,-180 325.39,-180 325.39,-180 325.39,-180 325.39,-248 325.39,-248 325.39,-248 323.17,-248 323.17,-248"/>
<polygon fill="black" stroke="black" points="323.17,-244.5 313.17,-248 323.17,-251.5 323.17,-244.5"/>
</g>
<!-- AllergenMessagePipe -->
<g id="node47" class="node">
<title>AllergenMessagePipe</title>
<polygon fill="#ffffb3" stroke="black" points="7221.34,-122 7082.66,-122 7082.66,-86 7221.34,-86 7221.34,-122"/>
<text text-anchor="middle" x="7152" y="-99.8" font-family="Times,serif" font-size="14.00">AllergenMessagePipe</text>
</g>
<!-- PipesModule -->
<g id="node49" class="node">
<title>PipesModule</title>
<polygon fill="#8dd3c7" stroke="black" points="7046.88,-198 7043.88,-202 7022.88,-202 7019.88,-198 6957.12,-198 6957.12,-162 7046.88,-162 7046.88,-198"/>
<text text-anchor="middle" x="7002" y="-175.8" font-family="Times,serif" font-size="14.00">PipesModule</text>
</g>
<!-- AllergenMessagePipe&#45;&gt;PipesModule -->
<g id="edge48" class="edge">
<title>AllergenMessagePipe&#45;&gt;PipesModule</title>
<path fill="none" stroke="black" d="M7128.86,-122.03C7128.86,-142.77 7128.86,-174 7128.86,-174 7128.86,-174 7057.08,-174 7057.08,-174"/>
<polygon fill="black" stroke="black" points="7057.08,-170.5 7047.08,-174 7057.08,-177.5 7057.08,-170.5"/>
</g>
<!-- TitleCaseWordPipe -->
<g id="node48" class="node">
<title>TitleCaseWordPipe</title>
<polygon fill="#ffffb3" stroke="black" points="7064.41,-122 6937.59,-122 6937.59,-86 7064.41,-86 7064.41,-122"/>
<text text-anchor="middle" x="7001" y="-99.8" font-family="Times,serif" font-size="14.00">TitleCaseWordPipe</text>
</g>
<!-- TitleCaseWordPipe&#45;&gt;PipesModule -->
<g id="edge49" class="edge">
<title>TitleCaseWordPipe&#45;&gt;PipesModule</title>
<path fill="none" stroke="black" d="M7002,-122.01C7002,-122.01 7002,-151.85 7002,-151.85"/>
<polygon fill="black" stroke="black" points="6998.5,-151.85 7002,-161.85 7005.5,-151.85 6998.5,-151.85"/>
</g>
<!-- AllergenMessagePipe  -->
<g id="node50" class="node">
<title>AllergenMessagePipe </title>
<polygon fill="#fb8072" stroke="black" points="7224.34,-266 7081.66,-266 7081.66,-230 7224.34,-230 7224.34,-266"/>
<text text-anchor="middle" x="7153" y="-243.8" font-family="Times,serif" font-size="14.00">AllergenMessagePipe </text>
</g>
<!-- PipesModule&#45;&gt;AllergenMessagePipe  -->
<g id="edge50" class="edge">
<title>PipesModule&#45;&gt;AllergenMessagePipe </title>
<path fill="none" stroke="black" stroke-dasharray="5,2" d="M7047.04,-186C7098.34,-186 7175.14,-186 7175.14,-186 7175.14,-186 7175.14,-219.73 7175.14,-219.73"/>
<polygon fill="black" stroke="black" points="7171.64,-219.73 7175.14,-229.73 7178.64,-219.73 7171.64,-219.73"/>
</g>
<!-- TitleCaseWordPipe  -->
<g id="node51" class="node">
<title>TitleCaseWordPipe </title>
<polygon fill="#fb8072" stroke="black" points="7063.91,-266 6934.09,-266 6934.09,-230 7063.91,-230 7063.91,-266"/>
<text text-anchor="middle" x="6999" y="-243.8" font-family="Times,serif" font-size="14.00">TitleCaseWordPipe </text>
</g>
<!-- PipesModule&#45;&gt;TitleCaseWordPipe  -->
<g id="edge51" class="edge">
<title>PipesModule&#45;&gt;TitleCaseWordPipe </title>
<path fill="none" stroke="black" stroke-dasharray="5,2" d="M7002,-198.22C7002,-198.22 7002,-219.73 7002,-219.73"/>
<polygon fill="black" stroke="black" points="6998.5,-219.73 7002,-229.73 7005.5,-219.73 6998.5,-219.73"/>
</g>
<!-- CheckoutComponent -->
<g id="node52" class="node">
<title>CheckoutComponent</title>
<polygon fill="#ffffb3" stroke="black" points="3641.49,-122 3506.51,-122 3506.51,-86 3641.49,-86 3641.49,-122"/>
<text text-anchor="middle" x="3574" y="-99.8" font-family="Times,serif" font-size="14.00">CheckoutComponent</text>
</g>
<!-- CheckoutComponent&#45;&gt;SharedModule -->
<g id="edge52" class="edge">
<title>CheckoutComponent&#45;&gt;SharedModule</title>
<path fill="none" stroke="black" d="M3559.14,-122.18C3559.14,-135.04 3559.14,-150 3559.14,-150 3559.14,-150 259.53,-150 259.53,-150 259.53,-150 259.53,-151.86 259.53,-151.86"/>
<polygon fill="black" stroke="black" points="256.03,-151.86 259.53,-161.86 263.03,-151.86 256.03,-151.86"/>
</g>
<!-- PlatformLanguageComponent -->
<g id="node53" class="node">
<title>PlatformLanguageComponent</title>
<polygon fill="#ffffb3" stroke="black" points="3488.52,-122 3303.48,-122 3303.48,-86 3488.52,-86 3488.52,-122"/>
<text text-anchor="middle" x="3396" y="-99.8" font-family="Times,serif" font-size="14.00">PlatformLanguageComponent</text>
</g>
<!-- PlatformLanguageComponent&#45;&gt;SharedModule -->
<g id="edge53" class="edge">
<title>PlatformLanguageComponent&#45;&gt;SharedModule</title>
<path fill="none" stroke="black" d="M3309.57,-122.06C3309.57,-133.44 3309.57,-146 3309.57,-146 3309.57,-146 250.58,-146 250.58,-146 250.58,-146 250.58,-151.81 250.58,-151.81"/>
<polygon fill="black" stroke="black" points="247.08,-151.81 250.58,-161.81 254.08,-151.81 247.08,-151.81"/>
</g>
<!-- PopupinfoComponent -->
<g id="node54" class="node">
<title>PopupinfoComponent</title>
<polygon fill="#ffffb3" stroke="black" points="3284.67,-122 3145.33,-122 3145.33,-86 3284.67,-86 3284.67,-122"/>
<text text-anchor="middle" x="3215" y="-99.8" font-family="Times,serif" font-size="14.00">PopupinfoComponent</text>
</g>
<!-- PopupinfoComponent&#45;&gt;SharedModule -->
<g id="edge54" class="edge">
<title>PopupinfoComponent&#45;&gt;SharedModule</title>
<path fill="none" stroke="black" d="M3215,-122.11C3215,-131.9 3215,-142 3215,-142 3215,-142 241.63,-142 241.63,-142 241.63,-142 241.63,-151.89 241.63,-151.89"/>
<polygon fill="black" stroke="black" points="238.13,-151.89 241.63,-161.89 245.13,-151.89 238.13,-151.89"/>
</g>
<!-- PricingComponent -->
<g id="node55" class="node">
<title>PricingComponent</title>
<polygon fill="#ffffb3" stroke="black" points="3126.77,-122 3005.23,-122 3005.23,-86 3126.77,-86 3126.77,-122"/>
<text text-anchor="middle" x="3066" y="-99.8" font-family="Times,serif" font-size="14.00">PricingComponent</text>
</g>
<!-- PricingComponent&#45;&gt;SharedModule -->
<g id="edge55" class="edge">
<title>PricingComponent&#45;&gt;SharedModule</title>
<path fill="none" stroke="black" d="M3061.47,-122.19C3061.47,-130.28 3061.47,-138 3061.47,-138 3061.47,-138 232.68,-138 232.68,-138 232.68,-138 232.68,-151.94 232.68,-151.94"/>
<polygon fill="black" stroke="black" points="229.18,-151.94 232.68,-161.94 236.18,-151.94 229.18,-151.94"/>
</g>
<!-- RedsysResponseComponent -->
<g id="node56" class="node">
<title>RedsysResponseComponent</title>
<polygon fill="#ffffb3" stroke="black" points="3834.93,-122 3659.07,-122 3659.07,-86 3834.93,-86 3834.93,-122"/>
<text text-anchor="middle" x="3747" y="-99.8" font-family="Times,serif" font-size="14.00">RedsysResponseComponent</text>
</g>
<!-- RedsysResponseComponent&#45;&gt;SharedModule -->
<g id="edge56" class="edge">
<title>RedsysResponseComponent&#45;&gt;SharedModule</title>
<path fill="none" stroke="black" d="M3711,-122.05C3711,-136.37 3711,-154 3711,-154 3711,-154 268.47,-154 268.47,-154 268.47,-154 268.47,-154.79 268.47,-154.79"/>
<polygon fill="black" stroke="black" points="264.97,-151.94 268.47,-161.94 271.97,-151.94 264.97,-151.94"/>
</g>
</g>
</svg>
